<?xml version="1.0" encoding="UTF-8" standalone="no"?>
<!-- Generator: Adobe Illustrator 16.0.4, SVG Export Plug-In . SVG Version: 6.00 Build 0)  -->

<svg
   xmlns:dc="http://purl.org/dc/elements/1.1/"
   xmlns:cc="http://creativecommons.org/ns#"
   xmlns:rdf="http://www.w3.org/1999/02/22-rdf-syntax-ns#"
   xmlns:svg="http://www.w3.org/2000/svg"
   xmlns="http://www.w3.org/2000/svg"
   xmlns:sodipodi="http://sodipodi.sourceforge.net/DTD/sodipodi-0.dtd"
   xmlns:inkscape="http://www.inkscape.org/namespaces/inkscape"
   viewBox="32.5 9 100 100"
   version="1.1"
   id="svg70"
   inkscape:version="0.92.3 (2405546, 2018-03-11)">
  <metadata
     id="metadata76">
    <rdf:RDF>
      <cc:Work
         rdf:about="">
        <dc:format>image/svg+xml</dc:format>
        <dc:type
           rdf:resource="http://purl.org/dc/dcmitype/StillImage" />
        <dc:title></dc:title>
      </cc:Work>
    </rdf:RDF>
  </metadata>
  <defs
     id="defs74" />
  <sodipodi:namedview
     pagecolor="#ffffff"
     bordercolor="#666666"
     borderopacity="1"
     objecttolerance="10"
     gridtolerance="10"
     guidetolerance="10"
     inkscape:pageopacity="0.3"
     inkscape:pageshadow="2"
     inkscape:window-width="266"
     inkscape:window-height="205"
     id="namedview72"
     showgrid="false"
     inkscape:zoom="1.6050654"
     inkscape:window-maximized="1"
     inkscape:current-layer="svg70" />
  <g
     stroke="#FFF"
     fill="#FFF"
     id="g68"
     style="fill:#ffffff">
    <path
       d="M445.68,58.45,457,54.78c3.28-1.29,4.66.66,6.88,3L480.19,75c3.05,3.23,4.23,3.63,6.69-.44l10.31-18c2.05-3.58,11.07-2.78,8.33,2.14L501,66.79l-9.2,16.34c-.88,1.51-1.16,2.46-.27,4.11.6,1.11,1.15,2.06-.51,2.74l-7.39,2.54c-6.61,2.27-8.51,2.25-13-2.7L453.35,70.64c-3.36-4.76-5.35,1.75-7,4.64l-9.14,16.65c-2.47,4.44-11.78,3.56-8.55-2.06l15.06-26.29C445,61.59,443,59.7,445.68,58.45Z"
       id="path58"
       style="fill:#ffffff" />
    <path
       d="M58.41,66a29,29,0,0,0,11.08,3.9,15.76,15.76,0,0,0,3.62-6.3A22.18,22.18,0,0,1,65,54.35c-10.61-2.81-20.26-14.65-9-32.72C35.06,39.23,47.7,59.82,58.41,66Z"
       id="path60"
       style="fill:#ffffff" />
    <path
       d="M87.88,34.08A29,29,0,0,0,79,41.7,15.44,15.44,0,0,0,82.6,48a22.52,22.52,0,0,1,10.16-2.49c.62,0,1.24,0,1.87.08,7.74-7.77,22.81-10.19,32.82,8.58C122.7,27.22,98.55,27.87,87.88,34.08Z"
       id="path62"
       style="fill:#ffffff" />
    <path
       d="M94.83,63.57a13.92,13.92,0,0,0-3.51.43,22.18,22.18,0,0,1-3.93,11.6c2.87,10.59-2.56,24.87-23.84,24.15,25.73,9.38,37.24-11.87,37.2-24.21A29,29,0,0,0,98.59,64,17.23,17.23,0,0,0,94.83,63.57Z"
       id="path64"
       style="fill:#ffffff" />
    <path
       d="M106.28,51.09C94,44.06,86,47.93,82.35,49.85c-9.77-8.35-9.27-33.5,18.8-32.55C75.42,7.92,63.9,29.17,63.94,41.51c0,14.15,7.38,19.11,10.9,21.35h0c-2.35,12.63-24.37,24.78-37.59,0C42,89.83,66.15,89.18,76.82,83,89,75.86,89.68,67,89.86,62.86h0c12.11-4.28,33.65,8.72,18.8,32.56C129.64,77.82,117,57.23,106.28,51.09Z"
       id="path66"
       style="fill:#ffffff" />
  </g>
</svg>
