<svg id="svg" xmlns="http://www.w3.org/2000/svg" xmlns:xlink="http://www.w3.org/1999/xlink"  width="100px"
height="100px"
viewBox="0, 0, 400,388.0239520958084"
overflow="hidden"
padding-top="30px">
<animateTransform attributeName="transform"
atributeType="XML"
type="rotate"
from="0 0 0"
to="360 0 0"
dur="1s"
repeatCount="indefinite" />
<g id="svgg"><path id="path0" d="M208.544 0.568 C 208.544 1.208,207.440 1.528,201.748 2.541 C 199.612 2.921,197.078 3.575,196.117 3.993 C 195.155 4.412,193.408 5.068,192.233 5.452 C 186.721 7.252,171.476 14.578,170.485 15.904 C 170.379 16.047,168.904 17.114,167.208 18.276 C 163.652 20.713,163.884 20.533,159.784 24.035 C 155.855 27.390,151.727 31.466,149.709 33.984 C 148.854 35.049,147.937 36.152,147.670 36.435 C 144.532 39.755,137.083 50.202,134.744 54.563 C 134.400 55.204,133.255 57.214,132.200 59.029 C 129.991 62.829,128.035 66.835,126.890 69.903 C 126.452 71.078,125.864 72.393,125.583 72.826 C 122.899 76.966,118.821 94.280,117.263 108.155 C 116.395 115.884,117.629 138.738,119.192 143.882 C 119.387 144.523,119.834 146.621,120.184 148.544 C 121.222 154.234,123.345 160.736,126.948 169.264 C 127.612 170.834,128.155 172.436,128.155 172.824 C 128.155 173.862,129.502 176.820,130.261 177.450 C 130.622 177.751,131.381 178.797,131.946 179.775 C 132.834 181.314,137.283 187.645,138.438 189.015 C 139.312 190.053,145.156 196.351,146.796 198.023 C 149.804 201.091,151.604 202.560,156.113 205.629 C 164.769 211.519,164.841 212.001,159.117 225.825 C 157.056 230.800,154.394 235.317,151.104 239.417 C 150.247 240.485,149.009 242.425,148.353 243.728 C 147.002 246.410,140.865 252.670,134.930 257.420 C 130.050 261.327,118.327 267.932,112.816 269.880 C 103.473 273.182,102.104 273.510,93.981 274.385 C 82.366 275.637,69.875 274.716,61.841 272.015 C 60.291 271.494,58.854 271.068,58.649 271.068 C 58.443 271.068,57.320 270.631,56.153 270.097 C 54.985 269.563,53.918 269.126,53.780 269.126 C 53.293 269.126,46.758 265.738,44.168 264.143 C 42.722 263.253,41.453 262.524,41.346 262.524 C 41.020 262.524,36.748 259.657,35.922 258.885 C 35.495 258.485,34.513 257.690,33.739 257.118 C 29.066 253.665,21.066 245.917,17.456 241.348 C 16.111 239.646,14.905 238.165,14.777 238.058 C 14.649 237.951,13.805 236.903,12.902 235.728 C 11.998 234.553,10.822 233.068,10.289 232.427 C 9.755 231.786,8.576 230.270,7.669 229.058 C 6.762 227.846,5.539 226.479,4.951 226.020 C 4.364 225.562,3.883 224.902,3.883 224.554 C 3.883 224.048,3.787 224.019,3.398 224.409 C 2.601 225.208,2.847 230.529,3.787 232.816 C 4.226 233.883,4.880 236.041,5.240 237.609 C 5.600 239.178,6.213 241.013,6.602 241.687 C 6.991 242.361,8.485 245.796,9.923 249.320 C 11.361 252.845,12.754 255.990,13.019 256.311 C 13.285 256.631,13.886 257.658,14.356 258.592 C 14.826 259.526,15.720 260.994,16.343 261.854 C 16.966 262.714,17.476 263.575,17.476 263.768 C 17.476 263.961,18.404 265.551,19.538 267.302 C 20.672 269.053,21.926 271.010,22.324 271.650 C 22.722 272.291,23.261 272.990,23.520 273.204 C 23.780 273.417,24.990 274.903,26.209 276.505 C 30.005 281.491,36.396 288.022,40.715 291.327 C 42.992 293.070,45.379 294.962,46.019 295.533 C 48.503 297.745,64.395 306.408,65.968 306.408 C 66.216 306.408,66.722 306.576,67.093 306.782 C 73.169 310.159,85.086 313.165,96.505 314.202 C 135.359 317.729,166.838 308.057,194.542 284.078 C 199.588 279.710,206.508 272.891,208.540 270.283 C 209.285 269.326,210.308 268.107,210.812 267.573 C 211.317 267.039,212.329 265.684,213.061 264.563 C 213.794 263.442,214.542 262.524,214.725 262.524 C 215.496 262.524,218.191 259.208,218.626 257.724 C 218.885 256.840,219.676 255.068,220.383 253.786 C 222.834 249.347,226.986 238.604,227.587 235.146 C 227.773 234.078,228.195 231.981,228.526 230.485 C 228.857 228.990,229.382 224.840,229.692 221.262 C 230.434 212.690,231.505 210.918,236.927 209.294 C 242.036 207.763,257.161 207.187,261.942 208.342 C 263.223 208.651,265.800 208.911,267.668 208.918 C 269.930 208.927,271.812 209.179,273.299 209.670 C 275.578 210.422,280.348 211.904,283.495 212.837 C 285.004 213.284,289.914 215.497,292.192 216.757 C 292.597 216.981,294.432 217.952,296.270 218.914 C 298.108 219.876,300.049 221.050,300.583 221.523 C 301.117 221.996,302.073 222.706,302.708 223.102 C 303.344 223.498,304.043 223.965,304.262 224.140 C 304.481 224.316,305.621 225.193,306.796 226.089 C 310.255 228.728,316.880 235.234,319.775 238.835 C 320.548 239.796,321.712 241.239,322.362 242.042 C 323.013 242.845,323.759 243.894,324.020 244.372 C 324.282 244.851,325.320 246.497,326.326 248.029 C 327.332 249.562,328.155 250.941,328.155 251.095 C 328.155 251.249,328.748 252.616,329.471 254.134 C 331.830 259.078,332.534 260.746,333.094 262.718 C 333.398 263.786,333.801 265.184,333.990 265.825 C 336.648 274.822,337.694 288.983,336.373 298.058 C 335.152 306.439,334.640 309.453,334.095 311.456 C 333.776 312.631,333.280 314.534,332.993 315.685 C 332.352 318.261,329.622 325.913,328.128 329.320 C 327.520 330.709,326.752 332.612,326.421 333.550 C 326.091 334.487,325.494 335.798,325.094 336.462 C 324.693 337.126,324.151 338.369,323.888 339.223 C 323.624 340.078,322.991 341.507,322.481 342.399 C 321.611 343.921,321.283 345.620,321.766 346.103 C 321.975 346.311,323.071 345.509,324.901 343.808 C 325.405 343.339,326.059 342.815,326.354 342.643 C 327.904 341.739,337.818 330.208,341.437 325.101 C 346.265 318.287,352.961 306.650,353.981 303.301 C 354.144 302.767,354.583 301.893,354.957 301.359 C 356.182 299.611,359.549 289.368,360.765 283.689 C 363.043 273.053,362.915 274.411,362.883 261.359 C 362.851 248.551,362.743 247.480,360.637 239.223 C 360.337 238.049,359.971 236.388,359.822 235.534 C 359.486 233.594,356.069 223.671,354.983 221.475 C 354.538 220.578,354.175 219.667,354.175 219.451 C 354.175 218.992,349.231 208.879,347.951 206.719 C 347.469 205.907,346.693 204.631,346.226 203.883 C 345.758 203.136,344.707 201.388,343.889 200.000 C 336.637 187.691,321.485 171.590,310.451 164.466 C 309.128 163.612,306.847 162.118,305.382 161.147 C 299.280 157.104,290.840 152.916,282.718 149.903 C 280.262 148.992,277.728 148.022,277.087 147.748 C 276.447 147.474,274.786 146.879,273.398 146.427 C 272.010 145.974,270.524 145.441,270.097 145.241 C 268.918 144.690,257.813 142.634,253.204 142.114 C 250.961 141.861,248.922 141.490,248.672 141.291 C 247.480 140.338,231.825 141.390,225.049 142.877 C 222.913 143.346,220.291 143.917,219.223 144.146 C 218.155 144.374,216.359 144.977,215.231 145.485 C 214.104 145.992,213.055 146.408,212.901 146.409 C 212.747 146.410,211.762 146.847,210.711 147.380 C 209.660 147.913,208.668 148.350,208.506 148.350 C 208.344 148.350,206.846 148.981,205.176 149.752 C 197.210 153.431,194.246 152.193,187.564 142.395 C 186.811 141.291,185.461 139.397,184.564 138.185 C 183.666 136.973,182.551 134.876,182.086 133.525 C 181.620 132.174,180.742 130.085,180.134 128.884 C 179.526 127.683,179.015 126.285,178.999 125.777 C 178.971 124.933,178.099 123.349,176.157 120.612 C 175.496 119.681,174.534 116.562,172.972 110.291 C 171.648 104.972,171.573 83.590,172.853 76.311 C 173.352 73.471,175.108 67.206,176.466 63.416 C 178.796 56.914,184.681 46.398,188.158 42.524 C 188.925 41.670,190.015 40.359,190.580 39.612 C 192.030 37.694,197.338 32.587,200.583 29.986 C 206.094 25.569,215.031 20.660,223.484 17.405 C 226.255 16.338,228.964 15.240,229.504 14.966 C 230.044 14.692,231.709 14.169,233.204 13.805 C 234.699 13.441,236.675 12.893,237.595 12.588 C 238.515 12.283,240.874 11.784,242.838 11.479 C 244.801 11.175,247.893 10.667,249.709 10.352 C 251.524 10.036,256.362 9.468,260.459 9.088 C 267.359 8.450,267.924 8.340,268.124 7.598 C 268.520 6.121,268.358 5.895,266.699 5.620 C 265.791 5.469,263.913 4.919,262.524 4.397 C 260.295 3.559,255.795 2.524,251.068 1.762 C 248.682 1.378,248.155 1.160,248.155 0.556 C 248.155 0.081,245.282 0.000,228.350 0.000 C 211.235 0.000,208.544 0.077,208.544 0.568 " stroke="none" fill="#f0190a" fill-rule="evenodd"></path><path id="path1" d="M68.905 42.241 C 67.823 43.251,66.075 44.882,65.022 45.866 C 63.969 46.849,62.672 48.247,62.140 48.973 C 61.609 49.698,60.641 50.839,59.990 51.509 C 58.675 52.863,56.045 56.005,55.146 57.296 C 54.825 57.756,53.912 59.077,53.117 60.231 C 52.321 61.386,51.145 63.029,50.504 63.883 C 49.862 64.738,49.158 65.842,48.940 66.337 C 48.721 66.832,48.126 67.794,47.618 68.473 C 47.109 69.153,46.124 70.932,45.430 72.427 C 44.736 73.922,43.124 77.311,41.847 79.957 C 40.571 82.603,39.359 85.312,39.154 85.976 C 35.273 98.561,34.656 101.359,33.190 113.010 C 31.771 124.282,33.266 139.197,37.101 152.039 C 37.612 153.748,38.304 156.107,38.640 157.282 C 39.357 159.791,39.869 161.071,42.447 166.796 C 45.604 173.804,46.717 176.036,47.853 177.631 C 48.447 178.464,48.932 179.298,48.932 179.484 C 48.932 179.949,52.618 185.799,53.495 186.726 C 53.762 187.009,54.451 188.057,55.027 189.057 C 55.604 190.056,56.434 191.237,56.872 191.681 C 58.268 193.093,61.717 197.123,62.867 198.686 C 64.361 200.717,73.365 209.793,76.505 212.435 C 77.893 213.603,79.117 214.648,79.223 214.757 C 79.330 214.867,80.263 215.567,81.296 216.313 C 82.330 217.059,84.348 218.653,85.781 219.854 C 87.243 221.078,90.170 222.919,92.446 224.043 C 94.678 225.147,98.092 226.873,100.031 227.879 C 103.549 229.704,108.950 232.233,109.331 232.233 C 109.441 232.233,110.183 232.657,110.979 233.175 C 111.776 233.693,113.214 234.311,114.175 234.548 C 115.136 234.785,117.320 235.406,119.029 235.927 C 120.738 236.448,123.184 237.169,124.466 237.530 C 125.748 237.891,126.971 238.302,127.184 238.445 C 127.398 238.587,129.058 238.931,130.874 239.210 C 132.689 239.489,135.311 240.072,136.699 240.506 C 138.679 241.125,140.350 241.302,144.445 241.327 L 149.666 241.359 151.164 239.417 C 154.596 234.969,157.109 230.673,159.117 225.825 C 164.841 212.001,164.769 211.519,156.113 205.629 C 151.604 202.560,149.804 201.091,146.796 198.023 C 145.156 196.351,139.312 190.053,138.438 189.015 C 137.309 187.676,132.841 181.326,131.958 179.806 C 130.175 176.735,129.155 176.071,125.437 175.558 C 122.326 175.128,112.106 172.322,111.262 171.666 C 111.049 171.499,110.229 171.156,109.441 170.902 C 108.653 170.648,106.074 169.402,103.711 168.133 C 101.348 166.864,99.299 165.825,99.159 165.825 C 98.915 165.825,96.768 164.541,93.398 162.379 C 92.544 161.831,91.203 160.853,90.419 160.206 C 89.635 159.559,88.075 158.330,86.952 157.476 C 81.501 153.328,73.900 145.474,71.356 141.359 C 70.893 140.612,70.407 139.913,70.274 139.806 C 69.114 138.871,62.627 125.667,61.689 122.330 C 59.936 116.092,59.381 113.584,58.460 107.720 C 57.207 99.751,57.128 91.985,58.234 85.437 C 58.648 82.981,59.105 79.748,59.248 78.252 C 59.392 76.757,59.746 74.573,60.037 73.398 C 61.427 67.770,62.535 63.971,63.271 62.308 C 63.714 61.305,64.078 60.325,64.078 60.131 C 64.078 59.200,69.898 44.994,70.438 44.605 C 70.771 44.365,71.322 40.380,71.020 40.396 C 70.940 40.400,69.988 41.230,68.905 42.241 M273.010 69.377 C 264.109 70.242,247.261 73.892,242.394 76.009 C 241.682 76.319,239.851 76.919,238.325 77.341 C 236.799 77.764,235.373 78.243,235.154 78.406 C 234.936 78.568,233.883 79.017,232.816 79.403 C 231.748 79.789,229.476 80.921,227.767 81.918 C 226.058 82.915,224.137 83.984,223.498 84.293 C 222.858 84.602,220.967 85.763,219.294 86.872 C 217.622 87.982,215.655 89.088,214.923 89.330 C 214.191 89.571,213.592 89.926,213.592 90.117 C 213.592 90.309,213.058 90.742,212.404 91.080 C 211.750 91.418,210.571 92.252,209.783 92.935 C 208.994 93.617,208.068 94.350,207.724 94.563 C 203.122 97.422,190.907 108.845,187.374 113.592 C 186.738 114.447,186.125 115.233,186.012 115.340 C 185.898 115.447,184.906 116.757,183.806 118.252 C 182.706 119.748,181.181 121.573,180.418 122.309 C 178.638 124.024,178.562 125.778,180.134 128.884 C 180.742 130.085,181.620 132.174,182.086 133.525 C 182.551 134.876,183.666 136.973,184.564 138.185 C 185.461 139.397,186.811 141.291,187.564 142.395 C 194.246 152.193,197.210 153.431,205.176 149.752 C 206.846 148.981,208.369 148.350,208.560 148.350 C 208.752 148.350,209.482 148.034,210.182 147.649 C 210.883 147.264,212.330 146.628,213.398 146.236 C 214.466 145.843,215.515 145.393,215.728 145.235 C 216.319 144.798,220.388 143.690,221.419 143.685 C 221.920 143.682,224.026 143.258,226.098 142.742 C 228.650 142.107,232.095 141.658,236.777 141.349 C 244.473 140.842,245.401 140.623,246.305 139.110 C 249.583 133.616,266.897 119.782,273.592 117.307 C 274.874 116.833,276.447 116.126,277.087 115.736 C 277.728 115.346,279.039 114.801,280.000 114.526 C 280.961 114.250,282.097 113.805,282.524 113.537 C 283.892 112.678,289.018 111.012,292.621 110.256 C 294.544 109.852,297.252 109.259,298.641 108.937 C 306.208 107.183,318.208 107.109,322.913 108.786 C 323.553 109.015,325.907 109.529,328.142 109.930 C 330.377 110.330,333.173 111.029,334.355 111.484 C 340.441 113.823,344.334 115.478,344.874 115.954 C 345.205 116.246,346.166 116.729,347.010 117.028 C 348.882 117.691,351.896 119.379,354.203 121.056 C 355.149 121.743,356.447 122.666,357.087 123.107 C 359.062 124.464,363.241 127.652,364.429 128.707 C 365.050 129.258,365.698 129.709,365.870 129.709 C 366.528 129.709,376.703 140.192,379.816 144.078 C 381.612 146.320,383.306 148.386,383.580 148.669 C 383.854 148.951,384.078 149.300,384.078 149.445 C 384.078 149.590,384.503 150.202,385.022 150.806 C 385.541 151.409,386.696 153.113,387.590 154.592 C 389.427 157.631,391.793 158.664,391.306 156.214 C 391.189 155.626,390.906 154.010,390.677 152.621 C 390.236 149.945,389.767 148.379,388.935 146.796 C 388.654 146.262,388.133 144.820,387.777 143.592 C 387.421 142.364,386.620 140.355,385.997 139.126 C 385.374 137.898,384.862 136.557,384.859 136.147 C 384.857 135.737,384.615 135.125,384.322 134.788 C 384.029 134.451,383.419 133.167,382.966 131.935 C 382.513 130.703,381.413 128.431,380.522 126.886 C 378.743 123.800,377.379 121.369,375.975 118.780 C 375.470 117.849,374.640 116.531,374.130 115.851 C 373.621 115.171,373.204 114.507,373.204 114.374 C 373.204 114.141,370.753 110.833,367.260 106.352 C 364.632 102.982,359.069 97.202,356.472 95.146 C 355.798 94.612,354.650 93.607,353.921 92.913 C 353.192 92.218,352.468 91.650,352.313 91.650 C 352.158 91.650,351.596 91.257,351.064 90.777 C 350.532 90.296,348.961 89.167,347.573 88.268 C 346.184 87.369,344.622 86.320,344.101 85.938 C 342.695 84.906,339.825 83.207,338.028 82.340 C 337.157 81.920,336.021 81.254,335.504 80.859 C 334.489 80.086,328.818 77.604,326.602 76.964 C 325.854 76.747,322.971 75.765,320.194 74.779 C 315.699 73.184,310.104 71.788,303.689 70.661 C 302.515 70.455,300.505 70.102,299.223 69.877 C 296.853 69.461,276.197 69.067,273.010 69.377 M241.553 208.342 C 231.955 209.880,230.544 211.417,229.692 221.262 C 229.382 224.840,228.857 228.990,228.526 230.485 C 228.195 231.981,227.773 234.078,227.587 235.146 C 226.995 238.548,222.770 249.533,220.548 253.444 C 218.345 257.322,218.170 258.299,219.219 260.859 C 226.825 279.409,225.786 308.271,216.866 326.214 C 213.753 332.476,213.051 333.788,212.607 334.175 C 212.362 334.388,211.689 335.350,211.111 336.311 C 206.352 344.228,195.645 354.471,186.481 359.874 C 185.693 360.338,184.874 360.865,184.660 361.044 C 184.447 361.223,183.485 361.709,182.524 362.123 C 181.563 362.538,180.396 363.163,179.931 363.511 C 179.467 363.859,178.243 364.463,177.213 364.852 C 176.183 365.241,175.244 365.704,175.127 365.880 C 174.807 366.360,168.799 368.529,165.044 369.520 C 163.226 370.000,160.946 370.661,159.977 370.990 C 159.009 371.319,157.088 371.783,155.710 372.023 C 154.332 372.262,151.806 372.783,150.097 373.182 C 148.388 373.580,144.194 374.192,140.777 374.541 C 133.914 375.242,131.780 375.631,129.612 376.573 C 127.583 377.454,127.728 377.605,131.359 378.391 C 133.121 378.773,135.786 379.409,137.282 379.805 C 152.334 383.789,174.707 384.892,185.176 382.166 C 185.960 381.962,188.087 381.513,189.903 381.168 C 193.758 380.437,197.915 379.266,204.660 377.010 C 210.665 375.003,213.336 373.738,220.520 369.502 C 222.246 368.485,226.940 365.391,229.171 363.802 C 232.854 361.176,241.950 353.011,244.466 350.070 C 245.320 349.072,246.395 347.883,246.855 347.429 C 248.765 345.539,256.699 334.486,256.699 333.715 C 256.699 333.434,256.854 333.204,257.043 333.204 C 257.232 333.204,257.694 332.549,258.069 331.748 C 258.443 330.947,259.053 329.854,259.422 329.320 C 260.719 327.448,265.906 317.058,266.984 314.175 C 267.583 312.573,268.198 311.087,268.352 310.874 C 268.506 310.660,269.196 308.838,269.885 306.825 C 270.575 304.812,271.392 302.780,271.700 302.309 C 272.009 301.838,272.434 300.339,272.646 298.979 C 272.858 297.618,273.305 295.718,273.640 294.757 C 274.618 291.949,274.931 290.536,275.529 286.214 C 275.840 283.971,276.360 280.476,276.685 278.447 C 277.461 273.605,277.463 259.699,276.689 253.592 C 276.378 251.136,275.870 246.942,275.561 244.272 C 274.870 238.319,274.654 237.123,273.911 235.148 C 273.591 234.295,273.092 232.251,272.803 230.607 C 272.514 228.963,271.834 226.682,271.293 225.538 C 270.752 224.394,269.976 222.418,269.568 221.146 C 269.160 219.875,268.195 217.489,267.423 215.843 C 266.651 214.198,266.019 212.656,266.019 212.418 C 266.019 210.829,263.682 208.649,261.510 208.213 C 258.657 207.640,245.398 207.726,241.553 208.342 " stroke="none" fill="#0b090a" fill-rule="evenodd"></path><path id="path2" d="M0.000 108.498 C 0.000 215.108,0.013 217.000,0.745 217.191 C 1.154 217.299,2.278 218.499,3.242 219.858 C 4.206 221.218,5.497 222.942,6.110 223.689 C 6.724 224.437,7.822 226.010,8.552 227.184 C 9.281 228.359,9.976 229.408,10.097 229.515 C 10.218 229.621,10.997 230.670,11.828 231.845 C 12.659 233.019,14.144 234.942,15.128 236.117 C 16.111 237.291,17.198 238.689,17.543 239.223 C 18.476 240.667,29.291 251.508,32.466 254.182 C 36.933 257.944,40.466 260.583,41.036 260.583 C 41.229 260.583,42.683 261.479,44.268 262.574 C 59.569 273.148,85.206 276.686,104.854 270.934 C 113.348 268.448,127.633 261.772,129.297 259.511 C 129.417 259.349,130.292 258.712,131.241 258.096 C 133.536 256.607,134.273 256.012,138.746 252.039 C 140.561 250.427,145.243 245.800,145.243 245.618 C 145.243 244.517,141.908 243.448,136.867 242.933 C 131.737 242.408,129.196 241.864,128.369 241.112 C 128.166 240.928,127.532 240.777,126.960 240.777 C 125.514 240.777,120.583 239.681,118.252 238.842 C 117.184 238.457,115.612 237.928,114.757 237.665 C 113.903 237.402,112.281 236.772,111.154 236.264 C 110.026 235.756,108.943 235.340,108.746 235.340 C 108.550 235.340,107.918 234.903,107.342 234.369 C 106.766 233.835,106.037 233.398,105.723 233.398 C 105.186 233.398,98.899 230.752,97.350 229.874 C 96.961 229.653,95.912 229.104,95.020 228.654 C 94.128 228.203,93.049 227.542,92.621 227.184 C 92.194 226.826,91.233 226.298,90.485 226.011 C 89.738 225.724,88.632 225.084,88.028 224.589 C 87.425 224.094,86.715 223.689,86.451 223.689 C 86.187 223.689,85.457 223.144,84.830 222.476 C 84.203 221.809,83.165 221.015,82.524 220.712 C 81.150 220.061,79.622 218.976,76.812 216.653 C 75.682 215.719,74.544 214.779,74.282 214.565 C 70.394 211.370,62.235 203.129,59.705 199.840 C 59.226 199.219,57.957 197.646,56.883 196.345 C 54.904 193.947,54.396 193.260,52.557 190.494 C 51.991 189.644,51.270 188.690,50.953 188.374 C 50.637 188.057,50.150 187.253,49.871 186.586 C 49.593 185.920,49.084 185.142,48.741 184.857 C 48.398 184.572,47.785 183.610,47.379 182.718 C 46.973 181.827,46.361 180.866,46.021 180.584 C 45.077 179.800,42.913 175.931,41.299 172.140 C 40.502 170.269,39.466 168.126,38.995 167.379 C 38.524 166.631,37.924 165.320,37.660 164.466 C 37.396 163.612,37.027 162.718,36.839 162.480 C 36.262 161.750,33.064 151.530,31.869 146.602 C 28.296 131.860,28.189 112.181,31.610 99.029 C 34.232 88.948,36.241 83.175,38.702 78.641 C 39.050 78.000,39.571 77.039,39.859 76.505 C 40.148 75.971,40.872 74.485,41.469 73.204 C 42.954 70.016,44.900 66.683,45.935 65.555 C 46.409 65.039,47.100 64.015,47.471 63.279 C 47.842 62.544,48.476 61.505,48.879 60.971 C 49.283 60.437,50.533 58.733,51.656 57.184 C 52.780 55.636,53.850 54.369,54.034 54.369 C 54.218 54.369,54.369 54.122,54.369 53.820 C 54.369 53.518,54.979 52.600,55.725 51.781 C 57.213 50.145,57.284 50.063,59.806 46.986 C 66.105 39.303,73.568 32.373,76.779 31.227 C 79.378 30.300,80.213 32.934,78.452 36.505 C 78.084 37.252,77.408 38.650,76.951 39.612 C 76.494 40.573,75.963 41.621,75.771 41.942 C 74.820 43.524,70.673 52.464,70.127 54.108 C 69.784 55.139,69.222 56.527,68.877 57.193 C 68.533 57.859,67.941 59.462,67.562 60.755 C 67.183 62.049,66.601 63.634,66.268 64.279 C 65.671 65.438,63.788 72.366,62.946 76.505 C 60.072 90.626,60.546 108.496,64.052 118.252 C 64.436 119.320,64.873 120.871,65.023 121.699 C 65.173 122.527,65.714 123.838,66.225 124.612 C 66.736 125.386,67.412 126.752,67.727 127.647 C 68.424 129.629,71.290 135.106,72.844 137.424 C 73.469 138.356,74.330 139.679,74.757 140.362 C 77.006 143.961,89.842 157.282,91.061 157.282 C 91.288 157.282,92.081 157.781,92.824 158.392 C 93.567 159.002,94.874 159.883,95.728 160.350 C 96.583 160.817,98.417 161.888,99.806 162.730 C 101.194 163.572,103.117 164.633,104.078 165.087 C 105.039 165.541,106.087 166.133,106.408 166.402 C 106.728 166.672,107.675 167.112,108.512 167.381 C 109.349 167.650,110.572 168.180,111.231 168.558 C 111.889 168.936,113.039 169.360,113.786 169.501 C 115.282 169.783,116.820 170.289,118.715 171.121 C 122.443 172.758,126.511 172.439,125.762 170.568 C 124.900 168.414,124.685 167.905,123.596 165.437 C 122.984 164.049,122.256 162.126,121.978 161.165 C 121.700 160.204,121.061 158.369,120.558 157.087 C 120.055 155.806,119.354 153.272,119.002 151.456 C 118.650 149.641,118.112 147.194,117.808 146.019 C 117.504 144.845,117.006 141.612,116.701 138.835 C 116.396 136.058,115.880 131.689,115.552 129.126 C 114.800 123.233,114.796 112.139,115.543 106.990 C 115.853 104.854,116.361 101.184,116.671 98.835 C 117.256 94.411,117.472 93.319,118.858 87.767 C 119.762 84.146,122.424 76.303,124.196 72.038 C 126.211 67.188,129.554 60.173,130.222 59.393 C 130.581 58.974,130.874 58.498,130.874 58.334 C 130.874 58.004,134.326 52.081,136.807 48.155 C 143.282 37.910,155.869 24.263,163.642 19.060 C 164.095 18.757,165.427 17.888,166.602 17.131 C 167.777 16.373,168.919 15.547,169.141 15.294 C 169.774 14.572,175.039 11.511,179.806 9.094 C 182.874 7.539,189.998 4.660,190.781 4.660 C 191.092 4.660,192.345 4.128,193.564 3.477 C 194.784 2.826,196.774 2.118,197.988 1.902 C 201.123 1.345,201.553 1.183,201.553 0.556 C 201.553 0.075,187.990 0.000,100.777 0.000 L 0.000 0.000 0.000 108.498 M255.534 0.556 C 255.534 1.208,256.049 1.391,259.342 1.909 C 260.688 2.121,262.698 2.720,263.808 3.241 C 264.917 3.763,266.941 4.472,268.306 4.819 C 269.670 5.165,271.855 5.946,273.160 6.554 C 274.466 7.162,275.883 7.784,276.311 7.935 C 278.828 8.828,273.865 9.963,266.019 10.288 C 260.614 10.512,253.386 11.226,248.252 12.041 C 241.813 13.065,240.403 13.313,238.058 13.838 C 233.089 14.950,232.022 15.268,230.790 16.002 C 230.102 16.412,228.442 17.070,227.100 17.465 C 225.758 17.860,223.926 18.548,223.028 18.994 C 222.131 19.441,221.210 19.806,220.982 19.806 C 220.363 19.806,213.867 22.975,213.273 23.566 C 212.991 23.848,212.588 24.078,212.379 24.078 C 212.013 24.078,209.471 25.708,204.466 29.151 C 195.889 35.052,188.291 43.618,183.303 53.010 C 182.395 54.718,181.534 56.204,181.388 56.311 C 180.913 56.660,178.553 62.546,176.716 67.961 C 172.820 79.451,171.910 98.750,174.721 110.291 C 176.966 119.508,178.379 120.563,181.743 115.530 C 184.370 111.601,193.290 102.130,197.476 98.827 C 198.544 97.984,200.204 96.618,201.165 95.792 C 202.126 94.965,203.550 93.963,204.328 93.565 C 205.107 93.167,205.985 92.617,206.280 92.343 C 208.224 90.533,211.249 88.284,213.921 86.661 C 215.631 85.623,217.318 84.485,217.669 84.134 C 218.020 83.783,218.495 83.495,218.723 83.495 C 218.951 83.495,219.953 82.993,220.949 82.380 C 221.946 81.767,223.188 81.132,223.711 80.968 C 224.233 80.804,225.154 80.257,225.758 79.753 C 226.362 79.248,227.034 78.835,227.251 78.835 C 227.469 78.835,228.897 78.238,230.425 77.509 C 234.704 75.467,237.661 74.308,240.000 73.756 C 241.175 73.479,242.311 73.133,242.524 72.988 C 243.170 72.549,246.684 71.527,248.539 71.239 C 249.497 71.090,250.982 70.717,251.840 70.410 C 252.697 70.102,255.320 69.525,257.670 69.128 C 260.019 68.730,262.990 68.121,264.272 67.775 C 269.735 66.300,295.179 66.034,301.359 67.387 C 302.748 67.691,305.718 68.301,307.961 68.742 C 310.204 69.184,313.175 69.877,314.563 70.284 C 315.951 70.690,317.786 71.140,318.641 71.284 C 319.495 71.428,321.243 71.939,322.524 72.420 C 323.806 72.900,325.728 73.567,326.796 73.902 C 329.173 74.646,335.042 77.102,335.663 77.612 C 336.122 77.988,338.356 79.240,341.989 81.157 C 343.084 81.735,344.482 82.540,345.098 82.948 C 345.713 83.356,346.496 83.864,346.837 84.078 C 349.368 85.664,350.919 86.792,351.184 87.241 C 351.355 87.530,351.669 87.767,351.882 87.767 C 353.031 87.767,366.537 100.564,370.600 105.503 C 374.787 110.593,375.696 111.810,376.504 113.398 C 376.885 114.146,377.303 114.845,377.434 114.951 C 377.888 115.321,380.516 119.502,381.731 121.785 C 382.401 123.046,383.556 125.213,384.296 126.600 C 385.036 127.987,385.971 129.996,386.373 131.066 C 387.406 133.814,388.722 136.962,389.776 139.202 C 390.273 140.259,390.680 141.366,390.680 141.662 C 390.680 141.958,391.218 143.541,391.877 145.178 C 392.535 146.816,393.224 149.070,393.409 150.187 C 393.593 151.305,394.011 152.790,394.338 153.488 C 395.058 155.024,396.117 159.939,396.117 161.749 C 396.117 162.469,396.390 164.237,396.724 165.677 C 397.389 168.546,397.213 170.303,396.295 169.951 C 394.375 169.214,391.567 166.959,390.877 165.601 C 390.452 164.763,389.534 163.268,388.838 162.278 C 388.142 161.288,387.573 160.305,387.573 160.093 C 387.573 159.880,387.282 159.467,386.926 159.174 C 386.570 158.881,385.664 157.680,384.912 156.505 C 384.160 155.330,383.315 154.138,383.035 153.856 C 382.754 153.574,382.524 153.163,382.524 152.944 C 382.524 152.533,380.887 150.511,374.166 142.625 C 370.442 138.255,366.477 134.183,363.101 131.262 C 362.237 130.515,360.945 129.379,360.231 128.738 C 357.030 125.868,344.304 118.068,342.808 118.060 C 342.643 118.059,341.857 117.649,341.060 117.148 C 340.264 116.647,338.650 115.925,337.476 115.543 C 336.301 115.161,335.098 114.653,334.803 114.415 C 330.595 111.010,303.696 109.525,295.340 112.237 C 294.058 112.652,291.896 113.165,290.536 113.375 C 289.175 113.586,287.681 114.008,287.215 114.313 C 286.750 114.618,285.242 115.183,283.864 115.567 C 282.486 115.952,281.150 116.473,280.895 116.726 C 280.389 117.225,273.713 120.524,272.381 120.932 C 271.929 121.071,271.246 121.530,270.865 121.952 C 270.483 122.373,269.976 122.718,269.737 122.718 C 269.498 122.718,268.695 123.217,267.953 123.827 C 267.210 124.437,266.034 125.228,265.340 125.584 C 264.646 125.941,264.078 126.366,264.078 126.528 C 264.078 126.690,263.549 127.135,262.902 127.517 C 262.256 127.899,261.330 128.592,260.846 129.057 C 260.361 129.522,259.274 130.424,258.429 131.061 C 254.124 134.306,249.791 139.719,250.933 140.425 C 251.141 140.554,253.441 140.907,256.043 141.210 C 258.645 141.513,261.736 142.003,262.911 142.299 C 264.087 142.595,266.010 143.047,267.184 143.303 C 269.645 143.839,278.839 146.774,279.417 147.208 C 279.631 147.368,280.854 147.789,282.136 148.144 C 283.417 148.498,285.165 149.119,286.019 149.523 C 286.874 149.928,289.335 151.039,291.490 151.993 C 295.468 153.754,297.607 154.860,302.136 157.493 C 303.524 158.301,305.272 159.283,306.019 159.676 C 308.460 160.958,315.741 166.373,321.224 170.982 C 324.239 173.517,330.058 179.399,335.336 185.247 C 336.700 186.758,338.177 188.657,341.223 192.816 C 341.693 193.456,342.903 195.291,343.912 196.893 C 344.921 198.495,346.333 200.709,347.048 201.813 C 347.764 202.918,348.350 203.926,348.350 204.054 C 348.350 204.182,348.793 204.990,349.336 205.849 C 350.677 207.975,354.951 216.495,354.951 217.044 C 354.951 217.287,355.105 217.790,355.294 218.161 C 356.401 220.343,357.381 222.713,357.853 224.347 C 358.150 225.374,359.098 228.247,359.960 230.732 C 360.822 233.217,361.804 236.624,362.140 238.305 C 362.477 239.985,363.005 242.495,363.313 243.883 C 366.360 257.594,363.964 285.412,358.869 295.478 C 358.475 296.256,358.022 297.502,357.861 298.245 C 357.700 298.989,356.980 300.707,356.260 302.064 C 355.540 303.420,354.951 304.743,354.951 305.004 C 354.951 306.966,344.083 325.217,340.966 328.490 C 340.429 329.053,339.470 330.214,338.836 331.068 C 332.079 340.169,320.270 351.456,317.505 351.456 C 316.816 351.456,316.613 348.793,317.252 348.136 C 317.449 347.933,318.509 345.976,319.607 343.786 C 320.705 341.597,321.754 339.806,321.936 339.806 C 322.119 339.806,322.390 339.253,322.538 338.577 C 322.687 337.901,323.399 336.197,324.121 334.790 C 324.843 333.384,325.436 331.971,325.440 331.650 C 325.443 331.330,325.894 330.285,326.441 329.328 C 326.988 328.371,327.674 326.711,327.965 325.639 C 328.257 324.567,329.273 321.417,330.223 318.641 C 334.878 305.038,336.652 282.362,333.837 272.427 C 333.534 271.359,332.985 269.087,332.617 267.379 C 331.841 263.781,331.028 261.381,329.317 257.633 C 328.644 256.158,327.912 254.515,327.691 253.981 C 327.470 253.447,327.133 252.748,326.943 252.427 C 326.753 252.107,326.476 251.583,326.328 251.262 C 325.803 250.123,322.321 244.447,321.459 243.325 C 318.232 239.122,313.628 233.952,311.399 232.027 C 310.896 231.593,309.262 230.183,307.767 228.893 C 306.272 227.603,303.825 225.702,302.330 224.670 C 300.835 223.638,299.249 222.468,298.805 222.071 C 297.938 221.296,291.795 217.931,288.932 216.664 C 287.971 216.239,286.293 215.461,285.204 214.936 C 284.115 214.410,282.979 213.978,282.680 213.975 C 282.081 213.968,279.648 213.152,279.022 212.748 C 277.541 211.791,271.381 210.821,270.701 211.437 C 270.013 212.060,271.042 216.522,272.227 218.058 C 272.392 218.272,272.914 219.670,273.386 221.165 C 273.859 222.660,274.475 224.583,274.756 225.437 C 275.037 226.291,275.561 228.039,275.921 229.320 C 276.281 230.602,276.724 232.029,276.906 232.492 C 277.087 232.955,277.431 234.790,277.670 236.570 C 277.909 238.350,278.560 242.340,279.117 245.437 C 280.041 250.575,280.144 252.190,280.291 263.883 L 280.453 276.699 279.053 285.243 C 278.283 289.942,277.215 295.184,276.679 296.893 C 276.144 298.602,275.247 301.485,274.686 303.301 C 273.629 306.724,272.849 308.836,272.214 309.995 C 272.011 310.366,271.845 310.864,271.845 311.101 C 271.845 311.921,268.746 319.216,267.037 322.419 C 260.921 333.883,259.246 336.667,256.423 340.062 C 255.507 341.164,254.757 342.244,254.757 342.461 C 254.757 342.679,254.538 343.088,254.270 343.370 C 254.002 343.653,252.997 344.843,252.037 346.015 C 248.082 350.846,239.134 359.797,235.340 362.720 C 234.379 363.461,233.392 364.244,233.147 364.460 C 232.902 364.677,231.941 365.428,231.011 366.130 C 230.081 366.831,228.621 367.939,227.767 368.592 C 226.913 369.245,225.689 370.020,225.049 370.315 C 224.408 370.609,222.835 371.467,221.553 372.220 C 220.272 372.973,218.437 373.983,217.476 374.464 C 216.515 374.946,215.525 375.531,215.276 375.764 C 215.027 375.998,214.241 376.405,213.528 376.668 C 212.816 376.931,211.359 377.552,210.291 378.047 C 209.223 378.542,207.650 379.167,206.796 379.436 C 205.942 379.705,204.685 380.164,204.002 380.456 C 203.320 380.748,201.311 381.333,199.536 381.757 C 197.762 382.180,195.350 382.781,194.175 383.092 C 193.000 383.402,190.816 383.848,189.320 384.081 C 187.825 384.315,185.641 384.755,184.466 385.060 C 177.597 386.841,157.860 386.835,150.097 385.050 C 148.816 384.755,146.194 384.317,144.272 384.075 C 142.350 383.834,139.553 383.304,138.058 382.897 C 136.563 382.490,134.131 381.970,132.653 381.740 C 131.175 381.511,128.991 381.003,127.799 380.612 C 126.607 380.221,124.336 379.592,122.754 379.214 C 119.908 378.534,116.893 376.561,116.893 375.378 C 116.893 374.058,119.310 373.452,125.782 373.152 C 135.233 372.713,151.426 370.710,153.388 369.738 C 153.714 369.576,155.379 369.139,157.087 368.766 C 158.796 368.394,161.068 367.762,162.136 367.362 C 163.204 366.962,164.777 366.516,165.631 366.372 C 166.485 366.227,168.616 365.521,170.366 364.802 C 172.116 364.083,173.750 363.495,173.996 363.495 C 174.242 363.495,174.907 363.167,175.474 362.767 C 176.041 362.366,178.078 361.215,180.000 360.208 C 181.922 359.201,183.856 358.043,184.297 357.635 C 184.738 357.227,185.228 356.893,185.386 356.893 C 185.712 356.893,190.180 353.920,192.251 352.323 C 197.082 348.602,204.929 340.379,207.465 336.382 C 208.592 334.606,210.104 332.247,210.824 331.140 C 211.544 330.032,212.355 328.515,212.626 327.767 C 212.897 327.019,213.575 325.509,214.132 324.410 C 214.690 323.311,215.146 322.165,215.146 321.865 C 215.146 321.564,215.559 320.453,216.064 319.397 C 216.569 318.340,217.285 315.990,217.655 314.175 C 218.024 312.359,218.503 310.437,218.718 309.903 C 221.428 303.172,221.039 281.285,217.996 269.224 C 216.527 263.403,216.021 263.326,212.233 268.350 C 210.685 270.403,202.908 278.647,199.641 281.697 C 198.696 282.579,197.645 283.563,197.306 283.883 C 196.756 284.403,194.112 286.572,192.097 288.155 C 191.689 288.476,190.916 289.131,190.378 289.612 C 189.841 290.092,189.285 290.485,189.143 290.485 C 189.001 290.485,188.546 290.801,188.131 291.186 C 186.986 292.251,181.449 295.922,180.988 295.922 C 180.765 295.922,180.583 296.060,180.583 296.228 C 180.583 297.005,170.599 302.913,169.286 302.913 C 168.930 302.913,168.437 303.156,168.190 303.453 C 167.943 303.751,167.179 304.218,166.492 304.493 C 165.805 304.767,164.176 305.471,162.871 306.058 C 161.567 306.645,159.732 307.330,158.794 307.581 C 157.855 307.833,156.650 308.287,156.117 308.592 C 155.228 309.098,150.999 310.619,148.155 311.454 C 136.223 314.959,113.216 317.336,102.718 316.148 C 100.583 315.906,96.476 315.452,93.592 315.139 C 84.171 314.115,77.002 312.584,72.816 310.701 C 72.388 310.509,71.165 310.041,70.097 309.660 C 69.029 309.280,67.631 308.656,66.990 308.273 C 66.350 307.889,65.553 307.575,65.220 307.574 C 64.887 307.573,63.227 306.876,61.531 306.025 C 59.834 305.174,58.299 304.475,58.118 304.472 C 57.938 304.469,57.326 304.139,56.759 303.740 C 56.192 303.341,55.294 302.879,54.762 302.714 C 53.617 302.358,52.173 301.445,46.214 297.311 C 37.362 291.171,29.624 283.863,24.388 276.699 C 24.232 276.485,23.603 275.699,22.991 274.951 C 20.933 272.441,17.242 266.575,14.072 260.777 C 13.839 260.350,12.854 258.684,11.885 257.075 C 10.916 255.467,9.848 253.372,9.513 252.421 C 9.177 251.470,8.674 250.340,8.394 249.909 C 8.115 249.479,7.576 248.165,7.196 246.990 C 6.817 245.816,6.197 244.330,5.818 243.689 C 5.440 243.049,4.828 241.476,4.458 240.194 C 4.089 238.913,3.634 237.515,3.448 237.087 C 2.974 235.997,1.707 231.897,1.378 230.388 C 1.225 229.686,0.859 229.126,0.552 229.126 C 0.077 229.126,0.000 240.210,0.000 308.738 L 0.000 388.350 200.000 388.350 L 400.000 388.350 400.000 194.175 L 400.000 0.000 327.767 0.000 C 265.329 0.000,255.534 0.075,255.534 0.556 " stroke="none" fill="#fbfafa" fill-rule="evenodd"></path><path id="path3" d="M201.553 0.556 C 201.553 1.183,201.123 1.345,197.988 1.902 C 196.774 2.118,194.784 2.826,193.564 3.477 C 192.345 4.128,191.092 4.660,190.781 4.660 C 189.998 4.660,182.874 7.539,179.806 9.094 C 175.039 11.511,169.774 14.572,169.141 15.294 C 168.919 15.547,167.777 16.373,166.602 17.131 C 165.427 17.888,164.095 18.757,163.642 19.060 C 155.869 24.263,143.282 37.910,136.807 48.155 C 134.326 52.081,130.874 58.004,130.874 58.334 C 130.874 58.498,130.581 58.974,130.222 59.393 C 129.554 60.173,126.211 67.188,124.196 72.038 C 122.424 76.303,119.762 84.146,118.858 87.767 C 117.472 93.319,117.256 94.411,116.671 98.835 C 116.361 101.184,115.853 104.854,115.543 106.990 C 114.796 112.139,114.800 123.233,115.552 129.126 C 115.880 131.689,116.396 136.058,116.701 138.835 C 117.006 141.612,117.504 144.845,117.808 146.019 C 118.112 147.194,118.650 149.641,119.002 151.456 C 119.354 153.272,120.055 155.806,120.558 157.087 C 121.061 158.369,121.700 160.204,121.978 161.165 C 122.256 162.126,122.984 164.049,123.596 165.437 C 124.685 167.905,124.900 168.414,125.762 170.568 C 126.511 172.439,122.443 172.758,118.715 171.121 C 116.820 170.289,115.282 169.783,113.786 169.501 C 113.039 169.360,111.889 168.936,111.231 168.558 C 110.572 168.180,109.349 167.650,108.512 167.381 C 107.675 167.112,106.728 166.672,106.408 166.402 C 106.087 166.133,105.039 165.541,104.078 165.087 C 103.117 164.633,101.194 163.572,99.806 162.730 C 98.417 161.888,96.583 160.817,95.728 160.350 C 94.874 159.883,93.567 159.002,92.824 158.392 C 92.081 157.781,91.288 157.282,91.061 157.282 C 89.842 157.282,77.006 143.961,74.757 140.362 C 74.330 139.679,73.469 138.356,72.844 137.424 C 71.290 135.106,68.424 129.629,67.727 127.647 C 67.412 126.752,66.736 125.386,66.225 124.612 C 65.714 123.838,65.173 122.527,65.023 121.699 C 64.873 120.871,64.436 119.320,64.052 118.252 C 60.546 108.496,60.072 90.626,62.946 76.505 C 63.788 72.366,65.671 65.438,66.268 64.279 C 66.601 63.634,67.183 62.049,67.562 60.755 C 67.941 59.462,68.533 57.859,68.877 57.193 C 69.222 56.527,69.784 55.139,70.127 54.108 C 70.673 52.464,74.820 43.524,75.771 41.942 C 75.963 41.621,76.494 40.573,76.951 39.612 C 77.408 38.650,78.084 37.252,78.452 36.505 C 80.213 32.934,79.378 30.300,76.779 31.227 C 73.568 32.373,66.105 39.303,59.806 46.986 C 57.284 50.063,57.213 50.145,55.725 51.781 C 54.979 52.600,54.369 53.518,54.369 53.820 C 54.369 54.122,54.218 54.369,54.034 54.369 C 53.850 54.369,52.780 55.636,51.656 57.184 C 50.533 58.733,49.283 60.437,48.879 60.971 C 48.476 61.505,47.842 62.544,47.471 63.279 C 47.100 64.015,46.409 65.039,45.935 65.555 C 44.900 66.683,42.954 70.016,41.469 73.204 C 40.872 74.485,40.123 76.015,39.804 76.602 C 38.302 79.365,38.017 79.920,37.256 81.553 C 35.022 86.350,31.762 97.289,30.487 104.272 C 28.934 112.773,28.741 129.294,30.096 137.864 C 31.220 144.978,35.576 160.880,36.839 162.480 C 37.027 162.718,37.396 163.612,37.660 164.466 C 37.924 165.320,38.524 166.631,38.995 167.379 C 39.466 168.126,40.502 170.269,41.299 172.140 C 42.913 175.931,45.077 179.800,46.021 180.584 C 46.361 180.866,46.973 181.827,47.379 182.718 C 47.785 183.610,48.398 184.572,48.741 184.857 C 49.084 185.142,49.593 185.920,49.871 186.586 C 50.150 187.253,50.637 188.057,50.953 188.374 C 51.270 188.690,51.991 189.644,52.557 190.494 C 54.396 193.260,54.904 193.947,56.883 196.345 C 57.957 197.646,59.226 199.219,59.705 199.840 C 62.235 203.129,70.394 211.370,74.282 214.565 C 74.544 214.779,75.682 215.719,76.812 216.653 C 79.622 218.976,81.150 220.061,82.524 220.712 C 83.165 221.015,84.203 221.809,84.830 222.476 C 85.457 223.144,86.187 223.689,86.451 223.689 C 86.715 223.689,87.425 224.094,88.028 224.589 C 88.632 225.084,89.738 225.724,90.485 226.011 C 91.233 226.298,92.194 226.826,92.621 227.184 C 93.049 227.542,94.128 228.203,95.020 228.654 C 95.912 229.104,96.961 229.653,97.350 229.874 C 98.899 230.752,105.186 233.398,105.723 233.398 C 106.037 233.398,106.766 233.835,107.342 234.369 C 107.918 234.903,108.550 235.340,108.746 235.340 C 108.943 235.340,110.026 235.756,111.154 236.264 C 112.281 236.772,113.903 237.402,114.757 237.665 C 115.612 237.928,117.184 238.457,118.252 238.842 C 120.583 239.681,125.514 240.777,126.960 240.777 C 127.532 240.777,128.166 240.928,128.369 241.112 C 129.196 241.864,131.737 242.408,136.867 242.933 C 141.908 243.448,145.243 244.517,145.243 245.618 C 145.243 245.800,140.561 250.427,138.746 252.039 C 134.273 256.012,133.536 256.607,131.241 258.096 C 130.292 258.712,129.417 259.349,129.297 259.511 C 127.633 261.772,113.348 268.448,104.854 270.934 C 85.206 276.686,59.569 273.148,44.268 262.574 C 42.683 261.479,41.229 260.583,41.036 260.583 C 40.466 260.583,36.933 257.944,32.466 254.182 C 29.291 251.508,18.476 240.667,17.543 239.223 C 17.198 238.689,16.111 237.291,15.128 236.117 C 14.144 234.942,12.659 233.019,11.828 231.845 C 10.997 230.670,10.218 229.621,10.097 229.515 C 9.976 229.408,9.281 228.359,8.552 227.184 C 7.822 226.010,6.727 224.437,6.119 223.689 C 5.510 222.942,4.189 221.196,3.184 219.811 C 0.211 215.713,0.000 215.929,0.000 223.078 C 0.000 228.045,0.099 229.126,0.552 229.126 C 0.859 229.126,1.225 229.686,1.378 230.388 C 1.707 231.897,2.974 235.997,3.448 237.087 C 3.634 237.515,4.089 238.913,4.458 240.194 C 4.828 241.476,5.440 243.049,5.818 243.689 C 6.197 244.330,6.817 245.816,7.196 246.990 C 7.576 248.165,8.115 249.479,8.394 249.909 C 8.674 250.340,9.177 251.470,9.513 252.421 C 9.848 253.372,10.916 255.467,11.885 257.075 C 12.854 258.684,13.839 260.350,14.072 260.777 C 17.242 266.575,20.933 272.441,22.991 274.951 C 23.603 275.699,24.232 276.485,24.388 276.699 C 29.624 283.863,37.362 291.171,46.214 297.311 C 52.173 301.445,53.617 302.358,54.762 302.714 C 55.294 302.879,56.192 303.341,56.759 303.740 C 57.326 304.139,57.938 304.469,58.118 304.472 C 58.299 304.475,59.834 305.174,61.531 306.025 C 63.227 306.876,64.887 307.573,65.220 307.574 C 65.553 307.575,66.350 307.889,66.990 308.273 C 67.631 308.656,69.029 309.280,70.097 309.660 C 71.165 310.041,72.388 310.509,72.816 310.701 C 77.002 312.584,84.171 314.115,93.592 315.139 C 96.476 315.452,100.583 315.906,102.718 316.148 C 113.216 317.336,136.223 314.959,148.155 311.454 C 150.999 310.619,155.228 309.098,156.117 308.592 C 156.650 308.287,157.855 307.833,158.794 307.581 C 159.732 307.330,161.567 306.645,162.871 306.058 C 164.176 305.471,165.805 304.767,166.492 304.493 C 167.179 304.218,167.943 303.751,168.190 303.453 C 168.437 303.156,168.930 302.913,169.286 302.913 C 170.599 302.913,180.583 297.005,180.583 296.228 C 180.583 296.060,180.765 295.922,180.988 295.922 C 181.449 295.922,186.986 292.251,188.131 291.186 C 188.546 290.801,189.001 290.485,189.143 290.485 C 189.285 290.485,189.841 290.092,190.378 289.612 C 190.916 289.131,191.689 288.476,192.097 288.155 C 194.112 286.572,196.756 284.403,197.306 283.883 C 197.645 283.563,198.696 282.579,199.641 281.697 C 202.908 278.647,210.685 270.403,212.233 268.350 C 216.021 263.326,216.527 263.403,217.996 269.224 C 221.039 281.285,221.428 303.172,218.718 309.903 C 218.503 310.437,218.024 312.359,217.655 314.175 C 217.285 315.990,216.569 318.340,216.064 319.397 C 215.559 320.453,215.146 321.564,215.146 321.865 C 215.146 322.165,214.690 323.311,214.132 324.410 C 213.575 325.509,212.897 327.019,212.626 327.767 C 212.355 328.515,211.544 330.032,210.824 331.140 C 210.104 332.247,208.592 334.606,207.465 336.382 C 204.929 340.379,197.082 348.602,192.251 352.323 C 190.180 353.920,185.712 356.893,185.386 356.893 C 185.228 356.893,184.738 357.227,184.297 357.635 C 183.856 358.043,181.922 359.201,180.000 360.208 C 178.078 361.215,176.041 362.366,175.474 362.767 C 174.907 363.167,174.242 363.495,173.996 363.495 C 173.750 363.495,172.116 364.083,170.366 364.802 C 168.616 365.521,166.485 366.227,165.631 366.372 C 164.777 366.516,163.204 366.962,162.136 367.362 C 161.068 367.762,158.796 368.394,157.087 368.766 C 155.379 369.139,153.714 369.576,153.388 369.738 C 151.426 370.710,135.233 372.713,125.782 373.152 C 119.310 373.452,116.893 374.058,116.893 375.378 C 116.893 376.561,119.908 378.534,122.754 379.214 C 124.336 379.592,126.607 380.221,127.799 380.612 C 128.991 381.003,131.175 381.511,132.653 381.740 C 134.131 381.970,136.563 382.490,138.058 382.897 C 139.553 383.304,142.350 383.834,144.272 384.075 C 146.194 384.317,148.816 384.755,150.097 385.050 C 157.860 386.835,177.597 386.841,184.466 385.060 C 185.641 384.755,187.825 384.315,189.320 384.081 C 190.816 383.848,193.000 383.402,194.175 383.092 C 195.350 382.781,197.762 382.180,199.536 381.757 C 201.311 381.333,203.320 380.748,204.002 380.456 C 204.685 380.164,205.942 379.705,206.796 379.436 C 207.650 379.167,209.223 378.542,210.291 378.047 C 211.359 377.552,212.816 376.931,213.528 376.668 C 214.241 376.405,215.027 375.998,215.276 375.764 C 215.525 375.531,216.515 374.946,217.476 374.464 C 218.437 373.983,220.272 372.973,221.553 372.220 C 222.835 371.467,224.408 370.609,225.049 370.315 C 225.689 370.020,226.913 369.245,227.767 368.592 C 228.621 367.939,230.081 366.831,231.011 366.130 C 231.941 365.428,232.902 364.677,233.147 364.460 C 233.392 364.244,234.379 363.461,235.340 362.720 C 239.134 359.797,248.082 350.846,252.037 346.015 C 252.997 344.843,254.002 343.653,254.270 343.370 C 254.538 343.088,254.757 342.679,254.757 342.461 C 254.757 342.244,255.507 341.164,256.423 340.062 C 259.246 336.667,260.921 333.883,267.037 322.419 C 268.746 319.216,271.845 311.921,271.845 311.101 C 271.845 310.864,272.011 310.366,272.214 309.995 C 272.849 308.836,273.629 306.724,274.686 303.301 C 275.247 301.485,276.144 298.602,276.679 296.893 C 277.215 295.184,278.283 289.942,279.053 285.243 L 280.453 276.699 280.291 263.883 C 280.144 252.190,280.041 250.575,279.117 245.437 C 278.560 242.340,277.909 238.350,277.670 236.570 C 277.431 234.790,277.087 232.955,276.906 232.492 C 276.724 232.029,276.281 230.602,275.921 229.320 C 275.561 228.039,275.037 226.291,274.756 225.437 C 274.475 224.583,273.859 222.660,273.386 221.165 C 272.914 219.670,272.392 218.272,272.227 218.058 C 271.042 216.522,270.013 212.060,270.701 211.437 C 271.381 210.821,277.541 211.791,279.022 212.748 C 279.648 213.152,282.081 213.968,282.680 213.975 C 282.979 213.978,284.115 214.410,285.204 214.936 C 286.293 215.461,287.971 216.239,288.932 216.664 C 291.795 217.931,297.938 221.296,298.805 222.071 C 299.249 222.468,300.835 223.638,302.330 224.670 C 303.825 225.702,306.272 227.603,307.767 228.893 C 309.262 230.183,310.896 231.593,311.399 232.027 C 312.721 233.169,313.336 233.802,315.802 236.559 C 320.285 241.572,321.847 243.636,324.280 247.767 C 325.349 249.583,326.397 251.330,326.609 251.650 C 326.822 251.971,327.097 252.495,327.222 252.816 C 327.705 254.054,328.136 255.045,329.317 257.633 C 331.028 261.381,331.841 263.781,332.617 267.379 C 332.985 269.087,333.534 271.359,333.837 272.427 C 336.652 282.362,334.878 305.038,330.223 318.641 C 329.273 321.417,328.257 324.567,327.965 325.639 C 327.674 326.711,326.988 328.371,326.441 329.328 C 325.894 330.285,325.443 331.330,325.440 331.650 C 325.436 331.971,324.843 333.384,324.121 334.790 C 323.399 336.197,322.687 337.901,322.538 338.577 C 322.390 339.253,322.119 339.806,321.936 339.806 C 321.754 339.806,320.705 341.597,319.607 343.786 C 318.509 345.976,317.449 347.933,317.252 348.136 C 316.613 348.793,316.816 351.456,317.505 351.456 C 320.270 351.456,332.079 340.169,338.836 331.068 C 339.470 330.214,340.429 329.053,340.966 328.490 C 342.278 327.111,347.618 319.108,349.997 314.951 C 351.832 311.746,354.951 305.483,354.951 305.004 C 354.951 304.743,355.540 303.420,356.260 302.064 C 356.980 300.707,357.700 298.989,357.861 298.245 C 358.022 297.502,358.475 296.256,358.869 295.478 C 363.964 285.412,366.360 257.594,363.313 243.883 C 363.005 242.495,362.477 239.985,362.140 238.305 C 361.804 236.624,360.822 233.217,359.960 230.732 C 359.098 228.247,358.150 225.374,357.853 224.347 C 357.381 222.713,356.401 220.343,355.294 218.161 C 355.105 217.790,354.951 217.287,354.951 217.044 C 354.951 216.495,350.677 207.975,349.336 205.849 C 348.793 204.990,348.350 204.182,348.350 204.054 C 348.350 203.926,347.764 202.918,347.048 201.813 C 346.333 200.709,344.921 198.495,343.912 196.893 C 342.053 193.942,341.740 193.493,338.627 189.307 C 335.273 184.796,325.840 174.863,321.224 170.982 C 315.741 166.373,308.460 160.958,306.019 159.676 C 305.272 159.283,303.524 158.301,302.136 157.493 C 297.607 154.860,295.468 153.754,291.490 151.993 C 289.335 151.039,286.874 149.928,286.019 149.523 C 285.165 149.119,283.417 148.498,282.136 148.144 C 280.854 147.789,279.631 147.368,279.417 147.208 C 278.839 146.774,269.645 143.839,267.184 143.303 C 266.010 143.047,264.087 142.595,262.911 142.299 C 261.736 142.003,258.645 141.513,256.043 141.210 C 253.441 140.907,251.141 140.554,250.933 140.425 C 249.791 139.719,254.124 134.306,258.429 131.061 C 259.274 130.424,260.361 129.522,260.846 129.057 C 261.330 128.592,262.256 127.899,262.902 127.517 C 263.549 127.135,264.078 126.690,264.078 126.528 C 264.078 126.366,264.646 125.941,265.340 125.584 C 266.034 125.228,267.210 124.437,267.953 123.827 C 268.695 123.217,269.498 122.718,269.737 122.718 C 269.976 122.718,270.483 122.373,270.865 121.952 C 271.246 121.530,271.929 121.071,272.381 120.932 C 273.713 120.524,280.389 117.225,280.895 116.726 C 281.150 116.473,282.486 115.952,283.864 115.567 C 285.242 115.183,286.750 114.618,287.215 114.313 C 287.681 114.008,289.175 113.586,290.536 113.375 C 291.896 113.165,294.058 112.652,295.340 112.237 C 303.696 109.525,330.595 111.010,334.803 114.415 C 335.098 114.653,336.301 115.161,337.476 115.543 C 338.650 115.925,340.264 116.647,341.060 117.148 C 341.857 117.649,342.643 118.059,342.808 118.060 C 344.304 118.068,357.030 125.868,360.231 128.738 C 360.945 129.379,362.237 130.515,363.101 131.262 C 366.477 134.183,370.442 138.255,374.166 142.625 C 380.887 150.511,382.524 152.533,382.524 152.944 C 382.524 153.163,382.754 153.574,383.035 153.856 C 383.315 154.138,384.160 155.330,384.912 156.505 C 385.664 157.680,386.570 158.881,386.926 159.174 C 387.282 159.467,387.573 159.880,387.573 160.093 C 387.573 160.305,388.142 161.288,388.838 162.278 C 389.534 163.268,390.452 164.763,390.877 165.601 C 391.567 166.959,394.375 169.214,396.295 169.951 C 397.213 170.303,397.389 168.546,396.724 165.677 C 396.390 164.237,396.117 162.469,396.117 161.749 C 396.117 159.939,395.058 155.024,394.338 153.488 C 394.011 152.790,393.593 151.305,393.409 150.187 C 393.224 149.070,392.535 146.816,391.877 145.178 C 391.218 143.541,390.680 141.958,390.680 141.662 C 390.680 141.366,390.273 140.259,389.776 139.202 C 388.722 136.962,387.406 133.814,386.373 131.066 C 385.971 129.996,385.036 127.987,384.296 126.600 C 383.556 125.213,382.401 123.046,381.731 121.785 C 380.516 119.502,377.888 115.321,377.434 114.951 C 377.303 114.845,376.885 114.146,376.504 113.398 C 375.696 111.810,374.787 110.593,370.600 105.503 C 366.537 100.564,353.031 87.767,351.882 87.767 C 351.669 87.767,351.355 87.530,351.184 87.241 C 350.919 86.792,349.368 85.664,346.837 84.078 C 346.496 83.864,345.713 83.356,345.098 82.948 C 344.482 82.540,343.084 81.735,341.989 81.157 C 338.356 79.240,336.122 77.988,335.663 77.612 C 335.042 77.102,329.173 74.646,326.796 73.902 C 325.728 73.567,323.806 72.900,322.524 72.420 C 321.243 71.939,319.495 71.428,318.641 71.284 C 317.786 71.140,315.951 70.690,314.563 70.284 C 313.175 69.877,310.204 69.184,307.961 68.742 C 305.718 68.301,302.748 67.691,301.359 67.387 C 295.179 66.034,269.735 66.300,264.272 67.775 C 262.990 68.121,260.019 68.730,257.670 69.128 C 255.320 69.525,252.697 70.102,251.840 70.410 C 250.982 70.717,249.497 71.090,248.539 71.239 C 246.684 71.527,243.170 72.549,242.524 72.988 C 242.311 73.133,241.175 73.479,240.000 73.756 C 237.661 74.308,234.704 75.467,230.425 77.509 C 228.897 78.238,227.469 78.835,227.251 78.835 C 227.034 78.835,226.362 79.248,225.758 79.753 C 225.154 80.257,224.233 80.804,223.711 80.968 C 223.188 81.132,221.946 81.767,220.949 82.380 C 219.953 82.993,218.951 83.495,218.723 83.495 C 218.495 83.495,218.020 83.783,217.669 84.134 C 217.318 84.485,215.631 85.623,213.921 86.661 C 211.249 88.284,208.224 90.533,206.280 92.343 C 205.985 92.617,205.107 93.167,204.328 93.565 C 203.550 93.963,202.126 94.965,201.165 95.792 C 200.204 96.618,198.544 97.984,197.476 98.827 C 193.290 102.130,184.370 111.601,181.743 115.530 C 178.379 120.563,176.966 119.508,174.721 110.291 C 171.910 98.750,172.820 79.451,176.716 67.961 C 178.553 62.546,180.913 56.660,181.388 56.311 C 181.534 56.204,182.395 54.718,183.303 53.010 C 188.291 43.618,195.889 35.052,204.466 29.151 C 209.471 25.708,212.013 24.078,212.379 24.078 C 212.588 24.078,212.991 23.848,213.273 23.566 C 213.867 22.975,220.363 19.806,220.982 19.806 C 221.210 19.806,222.131 19.441,223.028 18.994 C 223.926 18.548,225.758 17.860,227.100 17.465 C 228.442 17.070,230.102 16.412,230.790 16.002 C 232.022 15.268,233.089 14.950,238.058 13.838 C 240.403 13.313,241.813 13.065,248.252 12.041 C 253.386 11.226,260.614 10.512,266.019 10.288 C 273.865 9.963,278.828 8.828,276.311 7.935 C 275.883 7.784,274.466 7.162,273.160 6.554 C 271.855 5.946,269.670 5.165,268.306 4.819 C 266.941 4.472,264.917 3.763,263.808 3.241 C 262.698 2.720,260.688 2.121,259.342 1.909 C 256.049 1.391,255.534 1.208,255.534 0.556 C 255.534 0.112,254.788 0.000,251.845 0.000 C 246.920 0.000,246.470 1.021,251.068 1.762 C 255.795 2.524,260.295 3.559,262.524 4.397 C 263.913 4.919,265.791 5.469,266.699 5.620 C 268.358 5.895,268.520 6.121,268.124 7.598 C 267.924 8.340,267.359 8.450,260.459 9.088 C 256.362 9.468,251.524 10.036,249.709 10.352 C 247.893 10.667,244.801 11.175,242.838 11.479 C 240.874 11.784,238.515 12.283,237.595 12.588 C 236.675 12.893,234.699 13.441,233.204 13.805 C 231.709 14.169,230.044 14.692,229.504 14.966 C 228.964 15.240,226.255 16.338,223.484 17.405 C 215.031 20.660,206.094 25.569,200.583 29.986 C 197.338 32.587,192.030 37.694,190.580 39.612 C 190.015 40.359,188.925 41.670,188.158 42.524 C 184.681 46.398,178.796 56.914,176.466 63.416 C 175.108 67.206,173.352 73.471,172.853 76.311 C 171.573 83.590,171.648 104.972,172.972 110.291 C 175.340 119.800,176.059 121.553,177.596 121.553 C 178.561 121.553,181.422 119.154,182.118 117.762 C 184.270 113.455,199.423 98.288,205.422 94.437 C 206.588 93.688,207.951 92.667,208.449 92.169 C 208.948 91.670,209.490 91.262,209.653 91.262 C 209.817 91.262,210.289 90.951,210.703 90.570 C 211.542 89.800,219.241 84.909,221.359 83.801 C 222.107 83.410,223.767 82.490,225.049 81.756 C 226.330 81.022,228.165 80.052,229.126 79.602 C 230.087 79.152,231.573 78.445,232.427 78.033 C 233.282 77.620,237.168 76.234,241.064 74.954 C 260.675 68.507,282.372 65.979,298.058 68.314 C 307.388 69.702,317.296 72.041,323.689 74.363 C 325.825 75.139,328.447 76.089,329.515 76.474 C 342.560 81.176,360.502 94.974,370.680 108.130 C 371.320 108.958,372.200 110.089,372.634 110.643 C 376.171 115.159,382.749 126.898,385.602 133.786 C 386.753 136.563,387.817 139.010,387.968 139.223 C 388.119 139.437,388.363 140.136,388.510 140.777 C 388.658 141.417,389.371 143.515,390.096 145.437 C 395.791 160.540,396.330 171.105,390.958 162.330 C 390.501 161.583,389.932 160.771,389.694 160.526 C 389.457 160.281,387.750 157.834,385.902 155.089 C 376.052 140.456,364.660 129.208,351.068 120.695 C 349.029 119.418,340.170 114.951,339.676 114.951 C 339.547 114.951,338.485 114.515,337.318 113.981 C 336.151 113.447,335.026 113.010,334.819 113.010 C 334.613 113.010,333.160 112.569,331.591 112.030 C 330.022 111.490,326.903 110.786,324.660 110.463 C 322.417 110.141,319.447 109.714,318.058 109.514 C 314.852 109.054,307.747 109.047,304.466 109.501 C 295.497 110.743,293.563 111.070,291.650 111.667 C 286.442 113.293,283.663 114.271,283.320 114.599 C 283.117 114.793,282.682 114.951,282.353 114.951 C 282.024 114.951,280.442 115.583,278.838 116.355 C 270.825 120.212,269.427 120.917,269.003 121.316 C 268.750 121.553,267.495 122.429,266.214 123.261 C 264.932 124.093,262.748 125.666,261.361 126.756 C 259.974 127.846,258.489 129.000,258.061 129.320 C 255.901 130.939,249.613 137.483,248.860 138.896 C 247.627 141.212,248.057 141.537,253.108 142.102 C 257.764 142.623,268.895 144.680,270.097 145.241 C 270.524 145.441,272.010 145.974,273.398 146.427 C 274.786 146.879,276.447 147.474,277.087 147.748 C 277.728 148.022,280.262 148.992,282.718 149.903 C 290.840 152.916,299.280 157.104,305.382 161.147 C 306.847 162.118,309.128 163.612,310.451 164.466 C 321.485 171.590,336.637 187.691,343.889 200.000 C 344.707 201.388,345.758 203.136,346.226 203.883 C 346.693 204.631,347.469 205.907,347.951 206.719 C 349.231 208.879,354.175 218.992,354.175 219.451 C 354.175 219.667,354.538 220.578,354.983 221.475 C 356.069 223.671,359.486 233.594,359.822 235.534 C 359.971 236.388,360.337 238.049,360.637 239.223 C 362.743 247.480,362.851 248.551,362.883 261.359 C 362.915 274.411,363.043 273.053,360.765 283.689 C 359.549 289.368,356.182 299.611,354.957 301.359 C 354.583 301.893,354.144 302.767,353.981 303.301 C 352.961 306.650,346.265 318.287,341.437 325.101 C 337.818 330.208,327.904 341.739,326.354 342.643 C 326.059 342.815,325.405 343.339,324.901 343.808 C 323.071 345.509,321.975 346.311,321.766 346.103 C 321.283 345.620,321.611 343.921,322.481 342.399 C 322.991 341.507,323.624 340.078,323.888 339.223 C 324.151 338.369,324.693 337.126,325.094 336.462 C 325.494 335.798,326.091 334.487,326.421 333.550 C 326.752 332.612,327.520 330.709,328.128 329.320 C 329.622 325.913,332.352 318.261,332.993 315.685 C 333.280 314.534,333.776 312.631,334.095 311.456 C 334.640 309.453,335.152 306.439,336.373 298.058 C 337.694 288.983,336.648 274.822,333.990 265.825 C 333.801 265.184,333.398 263.786,333.094 262.718 C 332.534 260.746,331.830 259.078,329.471 254.134 C 328.748 252.616,328.155 251.249,328.155 251.095 C 328.155 250.941,327.332 249.562,326.326 248.029 C 325.320 246.497,324.282 244.851,324.020 244.372 C 323.759 243.894,323.013 242.845,322.362 242.042 C 321.712 241.239,320.548 239.796,319.775 238.835 C 316.880 235.234,310.255 228.728,306.796 226.089 C 305.621 225.193,304.481 224.316,304.262 224.140 C 304.043 223.965,303.344 223.498,302.708 223.102 C 302.073 222.706,301.117 221.996,300.583 221.523 C 300.049 221.050,298.108 219.876,296.270 218.914 C 294.432 217.952,292.597 216.981,292.192 216.757 C 289.914 215.497,285.004 213.284,283.495 212.837 C 280.348 211.904,275.578 210.422,273.299 209.670 C 270.784 208.839,267.332 208.684,267.096 209.391 C 266.933 209.879,268.181 213.292,269.702 216.521 C 270.209 217.598,270.749 218.996,270.901 219.628 C 271.054 220.260,271.491 221.402,271.874 222.166 C 272.256 222.931,272.860 224.853,273.215 226.438 C 273.570 228.023,274.182 230.224,274.575 231.328 C 274.968 232.432,275.567 234.966,275.907 236.959 C 276.246 238.952,276.691 241.456,276.895 242.524 C 279.711 257.263,279.719 275.224,276.913 287.573 C 276.719 288.427,276.264 290.612,275.902 292.427 C 275.540 294.243,274.941 296.602,274.570 297.670 C 274.199 298.738,273.675 300.573,273.405 301.748 C 273.135 302.922,272.525 304.757,272.050 305.825 C 271.574 306.893,271.062 308.271,270.912 308.886 C 270.454 310.762,266.952 318.768,264.520 323.495 C 260.763 330.801,259.768 332.449,253.951 340.997 C 250.834 345.577,241.209 355.838,235.928 360.211 C 234.649 361.270,233.164 362.536,232.627 363.025 C 232.090 363.514,230.427 364.738,228.932 365.744 C 227.437 366.750,226.126 367.671,226.019 367.790 C 225.797 368.040,220.932 371.004,218.058 372.642 C 198.288 383.908,171.498 387.689,145.437 382.889 C 138.053 381.529,132.863 380.371,124.392 378.194 C 123.096 377.861,122.679 377.534,122.351 376.592 C 121.761 374.898,119.973 375.242,138.058 373.574 C 151.646 372.321,172.483 366.740,178.641 362.704 C 179.175 362.354,181.002 361.308,182.701 360.380 C 187.927 357.526,193.555 353.534,196.839 350.354 C 197.426 349.786,198.508 348.788,199.244 348.138 C 199.980 347.487,201.264 346.177,202.096 345.225 C 202.929 344.274,204.416 342.621,205.400 341.553 C 208.060 338.669,212.139 332.294,214.383 327.518 C 215.472 325.199,216.595 322.864,216.877 322.330 C 218.132 319.958,221.453 307.617,221.894 303.689 C 223.306 291.118,222.785 280.895,220.203 270.474 C 217.865 261.036,216.063 259.555,213.049 264.596 C 212.517 265.486,211.589 266.738,210.987 267.379 C 210.385 268.019,209.283 269.326,208.538 270.283 C 206.511 272.887,199.593 279.706,194.542 284.078 C 166.838 308.057,135.359 317.729,96.505 314.202 C 85.086 313.165,73.169 310.159,67.093 306.782 C 66.722 306.576,66.216 306.408,65.968 306.408 C 64.395 306.408,48.503 297.745,46.019 295.533 C 45.379 294.962,42.992 293.070,40.715 291.327 C 36.396 288.022,30.005 281.491,26.209 276.505 C 24.990 274.903,23.780 273.417,23.520 273.204 C 23.261 272.990,22.722 272.291,22.324 271.650 C 21.926 271.010,20.672 269.053,19.538 267.302 C 18.404 265.551,17.476 263.961,17.476 263.768 C 17.476 263.575,16.966 262.714,16.343 261.854 C 15.720 260.994,14.826 259.526,14.356 258.592 C 13.886 257.658,13.285 256.631,13.019 256.311 C 12.754 255.990,11.361 252.845,9.923 249.320 C 8.485 245.796,6.991 242.361,6.602 241.687 C 6.213 241.013,5.600 239.178,5.240 237.609 C 4.880 236.041,4.226 233.883,3.787 232.816 C 2.847 230.529,2.601 225.208,3.398 224.409 C 3.787 224.019,3.883 224.048,3.883 224.554 C 3.883 224.902,4.364 225.562,4.951 226.020 C 5.539 226.479,6.762 227.846,7.669 229.058 C 8.576 230.270,9.755 231.786,10.289 232.427 C 10.822 233.068,11.998 234.553,12.902 235.728 C 13.805 236.903,14.649 237.951,14.777 238.058 C 14.905 238.165,16.111 239.646,17.456 241.348 C 21.066 245.917,29.066 253.665,33.739 257.118 C 34.513 257.690,35.495 258.485,35.922 258.885 C 36.748 259.657,41.020 262.524,41.346 262.524 C 41.453 262.524,42.722 263.253,44.168 264.143 C 46.758 265.738,53.293 269.126,53.780 269.126 C 53.918 269.126,54.985 269.563,56.153 270.097 C 57.320 270.631,58.443 271.068,58.649 271.068 C 58.854 271.068,60.291 271.494,61.841 272.015 C 73.650 275.984,95.096 275.893,107.169 271.822 C 113.607 269.651,115.175 269.042,118.058 267.589 C 127.699 262.733,132.964 259.317,138.436 254.369 C 150.686 243.293,150.680 243.350,139.806 242.139 C 136.922 241.817,133.689 241.281,132.621 240.947 C 131.553 240.613,129.631 240.169,128.350 239.960 C 124.414 239.320,111.429 235.230,109.871 234.140 C 109.320 233.754,107.922 233.067,106.764 232.613 C 104.549 231.745,96.438 227.752,92.816 225.746 C 91.641 225.095,89.773 224.092,88.665 223.516 C 87.557 222.940,86.444 222.219,86.191 221.914 C 85.938 221.609,84.572 220.541,83.157 219.540 C 67.745 208.643,51.497 189.430,43.149 172.233 C 38.660 162.985,37.809 160.866,35.946 154.312 C 35.452 152.572,34.935 150.967,34.798 150.746 C 34.505 150.271,33.298 144.768,32.230 139.029 C 30.796 131.331,30.594 116.142,31.816 107.880 C 33.286 97.939,37.088 85.389,40.938 77.769 C 42.131 75.408,43.107 73.374,43.107 73.249 C 43.107 72.859,45.420 69.086,49.618 62.632 C 55.788 53.143,71.449 35.728,73.812 35.728 C 74.085 35.728,74.627 35.439,75.018 35.085 C 77.272 33.045,75.176 39.510,70.907 47.767 C 70.410 48.728,69.688 50.388,69.304 51.456 C 68.919 52.524,68.479 53.573,68.325 53.786 C 68.172 54.000,67.519 55.660,66.875 57.476 C 66.231 59.291,65.235 62.086,64.661 63.686 C 61.355 72.913,59.412 84.717,59.425 95.499 C 59.437 104.853,60.256 111.202,62.400 118.558 C 65.917 130.623,73.846 143.810,82.180 151.456 C 90.696 159.269,94.298 161.726,106.408 167.977 C 111.268 170.485,122.323 173.981,125.397 173.981 C 128.686 173.981,128.766 172.561,125.813 166.602 C 125.231 165.427,124.283 162.981,123.707 161.165 C 123.131 159.350,122.259 156.641,121.768 155.146 C 121.278 153.650,120.579 150.767,120.215 148.738 C 119.851 146.709,119.392 144.523,119.195 143.882 C 117.632 138.783,116.394 115.894,117.263 108.155 C 118.821 94.280,122.899 76.966,125.583 72.826 C 125.864 72.393,126.452 71.078,126.890 69.903 C 128.035 66.835,129.991 62.829,132.200 59.029 C 133.255 57.214,134.400 55.204,134.744 54.563 C 137.083 50.202,144.532 39.755,147.670 36.435 C 147.937 36.152,148.854 35.049,149.709 33.984 C 151.727 31.466,155.855 27.390,159.784 24.035 C 163.884 20.533,163.652 20.713,167.208 18.276 C 168.904 17.114,170.379 16.047,170.485 15.904 C 171.476 14.578,186.721 7.252,192.233 5.452 C 193.408 5.068,195.155 4.412,196.117 3.993 C 197.078 3.575,199.612 2.921,201.748 2.541 C 207.440 1.528,208.544 1.208,208.544 0.568 C 208.544 0.112,207.855 0.000,205.049 0.000 C 202.274 0.000,201.553 0.115,201.553 0.556 " stroke="none" fill="#9b9a9b" fill-rule="evenodd"></path><path id="path4" d="M75.001 35.081 C 74.708 35.437,74.209 35.728,73.892 35.728 C 71.441 35.728,55.953 52.908,49.553 62.725 C 45.611 68.774,43.107 72.861,43.107 73.249 C 43.107 73.374,42.131 75.408,40.938 77.769 C 32.346 94.775,28.728 120.227,32.230 139.029 C 33.298 144.768,34.505 150.271,34.798 150.746 C 34.935 150.967,35.452 152.572,35.946 154.312 C 37.809 160.866,38.660 162.985,43.149 172.233 C 51.497 189.430,67.745 208.643,83.157 219.540 C 84.572 220.541,85.938 221.609,86.191 221.914 C 86.444 222.219,87.557 222.940,88.665 223.516 C 89.773 224.092,91.641 225.095,92.816 225.746 C 96.438 227.752,104.549 231.745,106.764 232.613 C 107.922 233.067,109.320 233.754,109.871 234.140 C 111.348 235.173,124.579 239.382,127.767 239.832 C 128.728 239.968,130.695 240.418,132.137 240.833 C 133.580 241.248,137.426 241.900,140.684 242.283 C 143.943 242.666,146.966 243.170,147.403 243.404 C 148.050 243.750,148.283 243.691,148.661 243.085 C 149.486 241.765,149.205 241.667,143.981 241.450 C 140.784 241.318,138.201 241.006,137.162 240.628 C 136.242 240.293,133.796 239.735,131.725 239.388 C 129.655 239.042,127.612 238.607,127.184 238.423 C 126.757 238.239,125.447 237.813,124.272 237.476 C 123.097 237.140,120.738 236.440,119.029 235.922 C 117.320 235.404,115.136 234.785,114.175 234.548 C 113.214 234.311,111.776 233.693,110.979 233.175 C 110.183 232.657,109.441 232.233,109.331 232.233 C 108.950 232.233,103.549 229.704,100.031 227.879 C 98.092 226.873,94.678 225.147,92.446 224.043 C 90.170 222.919,87.243 221.078,85.781 219.854 C 84.348 218.653,82.330 217.059,81.296 216.313 C 80.263 215.567,79.330 214.867,79.223 214.757 C 79.117 214.648,77.893 213.603,76.505 212.435 C 73.365 209.793,64.361 200.717,62.867 198.686 C 61.717 197.123,58.268 193.093,56.872 191.681 C 56.434 191.237,55.604 190.056,55.027 189.057 C 54.451 188.057,53.762 187.009,53.495 186.726 C 52.618 185.799,48.932 179.949,48.932 179.484 C 48.932 179.298,48.447 178.464,47.853 177.631 C 45.844 174.811,39.892 161.664,38.640 157.282 C 38.304 156.107,37.612 153.748,37.101 152.039 C 33.266 139.197,31.771 124.282,33.190 113.010 C 34.656 101.359,35.273 98.561,39.154 85.976 C 39.359 85.312,40.571 82.603,41.847 79.957 C 43.124 77.311,44.736 73.922,45.430 72.427 C 46.124 70.932,47.109 69.153,47.618 68.473 C 48.126 67.794,48.721 66.832,48.940 66.337 C 49.158 65.842,49.862 64.738,50.504 63.883 C 51.145 63.029,52.321 61.386,53.117 60.231 C 53.912 59.077,54.825 57.756,55.146 57.296 C 56.045 56.005,58.675 52.863,59.990 51.509 C 60.641 50.839,61.609 49.701,62.140 48.980 C 63.398 47.274,63.738 46.927,67.400 43.627 C 69.097 42.098,70.639 40.700,70.827 40.521 C 71.022 40.334,71.086 41.085,70.977 42.274 C 70.872 43.419,70.629 44.467,70.438 44.605 C 69.898 44.994,64.078 59.200,64.078 60.131 C 64.078 60.325,63.714 61.305,63.271 62.308 C 62.535 63.971,61.427 67.770,60.037 73.398 C 59.746 74.573,59.392 76.757,59.248 78.252 C 59.105 79.748,58.648 82.981,58.234 85.437 C 57.128 91.985,57.207 99.751,58.460 107.720 C 59.381 113.584,59.936 116.092,61.689 122.330 C 62.627 125.667,69.114 138.871,70.274 139.806 C 70.407 139.913,70.893 140.612,71.356 141.359 C 73.900 145.474,81.501 153.328,86.952 157.476 C 88.075 158.330,89.635 159.559,90.419 160.206 C 91.203 160.853,92.544 161.831,93.398 162.379 C 96.768 164.541,98.915 165.825,99.159 165.825 C 99.299 165.825,101.348 166.864,103.711 168.133 C 106.074 169.402,108.653 170.648,109.441 170.902 C 110.229 171.156,111.049 171.499,111.262 171.664 C 112.142 172.346,121.260 174.867,125.122 175.496 L 129.273 176.172 128.714 174.835 C 128.407 174.099,128.155 173.425,128.155 173.337 C 128.155 173.249,127.817 173.357,127.404 173.579 C 125.186 174.766,113.542 171.659,106.408 167.977 C 96.269 162.743,91.660 159.823,86.698 155.487 C 75.879 146.035,71.121 139.523,64.822 125.548 C 58.671 111.902,57.669 90.121,62.341 71.647 C 63.044 68.868,64.088 65.286,64.661 63.686 C 65.235 62.086,66.231 59.291,66.875 57.476 C 67.519 55.660,68.172 54.000,68.325 53.786 C 68.479 53.573,68.919 52.524,69.304 51.456 C 69.688 50.388,70.410 48.728,70.907 47.767 C 74.184 41.430,75.764 37.512,75.651 36.001 C 75.547 34.611,75.474 34.507,75.001 35.081 M272.039 67.989 C 265.926 68.808,259.116 70.087,251.549 71.838 C 247.616 72.748,234.716 76.927,232.427 78.033 C 231.573 78.445,230.087 79.152,229.126 79.602 C 228.165 80.052,226.330 81.022,225.049 81.756 C 223.767 82.490,222.107 83.410,221.359 83.801 C 219.241 84.909,211.542 89.800,210.703 90.570 C 210.289 90.951,209.817 91.262,209.653 91.262 C 209.490 91.262,208.948 91.670,208.449 92.169 C 207.951 92.667,206.588 93.688,205.422 94.437 C 199.423 98.288,184.270 113.455,182.118 117.762 C 181.482 119.034,178.595 121.553,177.773 121.553 C 177.118 121.553,177.127 121.663,177.911 123.198 C 178.644 124.635,178.787 124.746,179.043 124.072 C 179.205 123.648,179.893 122.777,180.573 122.136 C 181.253 121.495,182.709 119.748,183.808 118.252 C 184.907 116.757,185.898 115.447,186.012 115.340 C 186.125 115.233,186.738 114.447,187.374 113.592 C 190.907 108.845,203.122 97.422,207.724 94.563 C 208.068 94.350,208.994 93.617,209.783 92.935 C 210.571 92.252,211.750 91.418,212.404 91.080 C 213.058 90.742,213.592 90.309,213.592 90.117 C 213.592 89.926,214.191 89.571,214.923 89.330 C 215.655 89.088,217.622 87.982,219.294 86.872 C 220.967 85.763,222.858 84.602,223.498 84.293 C 224.137 83.984,226.058 82.915,227.767 81.918 C 229.476 80.921,231.748 79.789,232.816 79.403 C 233.883 79.017,234.936 78.568,235.154 78.406 C 235.373 78.243,236.799 77.764,238.325 77.341 C 239.851 76.919,241.682 76.319,242.394 76.009 C 245.903 74.482,257.595 71.658,266.408 70.209 C 275.570 68.701,294.993 68.958,304.078 70.706 C 311.442 72.123,315.839 73.234,320.194 74.779 C 322.971 75.765,325.854 76.747,326.602 76.964 C 328.818 77.604,334.489 80.086,335.504 80.859 C 336.021 81.254,337.157 81.920,338.028 82.340 C 339.825 83.207,342.695 84.906,344.101 85.938 C 344.622 86.320,346.184 87.369,347.573 88.268 C 348.961 89.167,350.532 90.296,351.064 90.777 C 351.596 91.257,352.158 91.650,352.313 91.650 C 352.468 91.650,353.192 92.218,353.921 92.913 C 354.650 93.607,355.798 94.612,356.472 95.146 C 359.069 97.202,364.632 102.982,367.260 106.352 C 370.753 110.833,373.204 114.141,373.204 114.374 C 373.204 114.507,373.621 115.171,374.130 115.851 C 374.640 116.531,375.470 117.849,375.975 118.780 C 377.379 121.369,378.743 123.800,380.522 126.886 C 381.413 128.431,382.513 130.703,382.966 131.935 C 383.419 133.167,384.029 134.451,384.322 134.788 C 384.615 135.125,384.857 135.737,384.859 136.147 C 384.862 136.557,385.374 137.898,385.997 139.126 C 386.620 140.355,387.421 142.364,387.777 143.592 C 388.133 144.820,388.654 146.262,388.935 146.796 C 389.767 148.379,390.236 149.945,390.677 152.621 C 390.906 154.010,391.189 155.626,391.306 156.214 C 391.793 158.664,389.427 157.631,387.590 154.592 C 386.696 153.113,385.541 151.409,385.022 150.806 C 384.503 150.202,384.078 149.590,384.078 149.445 C 384.078 149.300,383.854 148.951,383.580 148.669 C 383.306 148.386,381.612 146.320,379.816 144.078 C 376.703 140.192,366.528 129.709,365.870 129.709 C 365.698 129.709,365.050 129.258,364.429 128.707 C 363.241 127.652,359.062 124.464,357.087 123.107 C 356.447 122.666,355.149 121.743,354.203 121.056 C 351.896 119.379,348.882 117.691,347.010 117.028 C 346.166 116.729,345.205 116.246,344.874 115.954 C 344.334 115.478,340.441 113.823,334.355 111.484 C 333.173 111.029,330.377 110.330,328.142 109.930 C 325.907 109.529,323.553 109.015,322.913 108.786 C 318.208 107.109,306.208 107.183,298.641 108.937 C 297.252 109.259,294.544 109.852,292.621 110.256 C 289.018 111.012,283.892 112.678,282.524 113.537 C 282.097 113.805,280.961 114.250,280.000 114.526 C 279.039 114.801,277.728 115.346,277.087 115.736 C 276.447 116.126,274.874 116.833,273.592 117.307 C 267.348 119.615,254.822 129.269,248.180 136.893 C 247.063 138.175,245.796 139.617,245.364 140.097 L 244.579 140.971 246.289 140.971 C 247.908 140.971,248.027 140.895,248.518 139.536 C 248.982 138.254,255.686 131.072,258.060 129.314 C 258.489 128.997,259.974 127.846,261.361 126.756 C 262.748 125.666,264.932 124.093,266.214 123.261 C 267.495 122.429,268.750 121.553,269.003 121.316 C 269.427 120.917,270.825 120.212,278.838 116.355 C 280.442 115.583,282.024 114.951,282.353 114.951 C 282.682 114.951,283.117 114.793,283.320 114.599 C 283.663 114.271,286.442 113.293,291.650 111.667 C 293.563 111.070,295.497 110.743,304.466 109.501 C 307.747 109.047,314.852 109.054,318.058 109.514 C 319.447 109.714,322.417 110.141,324.660 110.463 C 326.903 110.786,330.022 111.490,331.591 112.030 C 333.160 112.569,334.613 113.010,334.819 113.010 C 335.026 113.010,336.151 113.447,337.318 113.981 C 338.485 114.515,339.547 114.951,339.676 114.951 C 340.170 114.951,349.029 119.418,351.068 120.695 C 364.660 129.208,376.052 140.456,385.902 155.089 C 387.750 157.834,389.457 160.281,389.694 160.526 C 389.932 160.771,390.501 161.583,390.958 162.330 C 396.330 171.105,395.791 160.540,390.096 145.437 C 389.371 143.515,388.658 141.417,388.510 140.777 C 388.363 140.136,388.119 139.437,387.968 139.223 C 387.817 139.010,386.753 136.563,385.602 133.786 C 382.749 126.898,376.171 115.159,372.634 110.643 C 372.200 110.089,371.320 108.958,370.680 108.130 C 360.502 94.974,342.560 81.176,329.515 76.474 C 328.447 76.089,325.825 75.139,323.689 74.363 C 317.314 72.047,307.578 69.747,298.058 68.307 C 294.443 67.760,275.477 67.529,272.039 67.989 M264.313 209.417 C 264.467 209.684,264.914 210.367,265.306 210.934 C 265.699 211.501,266.019 212.164,266.019 212.408 C 266.019 212.652,266.651 214.198,267.423 215.843 C 268.195 217.489,269.160 219.875,269.568 221.146 C 269.976 222.418,270.752 224.394,271.293 225.538 C 271.834 226.682,272.514 228.963,272.803 230.607 C 273.092 232.251,273.591 234.295,273.911 235.148 C 274.654 237.123,274.870 238.319,275.561 244.272 C 275.870 246.942,276.378 251.136,276.689 253.592 C 277.463 259.699,277.461 273.605,276.685 278.447 C 276.360 280.476,275.840 283.971,275.529 286.214 C 274.931 290.536,274.618 291.949,273.640 294.757 C 273.305 295.718,272.858 297.618,272.646 298.979 C 272.434 300.339,272.009 301.838,271.700 302.309 C 271.392 302.780,270.575 304.812,269.885 306.825 C 269.196 308.838,268.506 310.660,268.352 310.874 C 268.198 311.087,267.583 312.573,266.984 314.175 C 265.906 317.058,260.719 327.448,259.422 329.320 C 259.053 329.854,258.443 330.947,258.069 331.748 C 257.694 332.549,257.232 333.204,257.043 333.204 C 256.854 333.204,256.699 333.434,256.699 333.715 C 256.699 334.486,248.765 345.539,246.855 347.429 C 246.395 347.883,245.320 349.072,244.466 350.070 C 241.950 353.011,232.854 361.176,229.171 363.802 C 226.940 365.391,222.246 368.485,220.520 369.502 C 213.336 373.738,210.665 375.003,204.660 377.010 C 197.915 379.266,193.758 380.437,189.903 381.168 C 188.087 381.513,185.960 381.962,185.176 382.166 C 174.707 384.892,152.334 383.789,137.282 379.805 C 135.786 379.409,133.121 378.773,131.359 378.391 C 127.728 377.605,127.583 377.454,129.612 376.573 C 131.780 375.631,133.914 375.242,140.777 374.541 C 144.194 374.192,148.388 373.580,150.097 373.182 C 151.806 372.783,154.332 372.262,155.710 372.023 C 157.088 371.783,159.009 371.319,159.977 370.990 C 160.946 370.661,163.226 370.000,165.044 369.520 C 168.799 368.529,174.807 366.360,175.127 365.880 C 175.244 365.704,176.183 365.241,177.213 364.852 C 178.243 364.463,179.467 363.859,179.931 363.511 C 180.396 363.163,181.563 362.538,182.524 362.123 C 183.485 361.709,184.447 361.223,184.660 361.044 C 184.874 360.865,185.693 360.338,186.481 359.874 C 195.645 354.471,206.352 344.228,211.111 336.311 C 211.689 335.350,212.362 334.388,212.607 334.175 C 213.051 333.788,213.753 332.476,216.866 326.214 C 225.760 308.323,226.814 280.396,219.326 261.036 L 218.525 258.966 217.366 260.124 L 216.208 261.283 217.215 262.368 C 218.520 263.776,218.732 264.362,220.362 271.068 C 222.788 281.052,223.274 291.400,221.894 303.689 C 221.453 307.617,218.132 319.958,216.877 322.330 C 216.595 322.864,215.472 325.199,214.383 327.518 C 212.139 332.294,208.060 338.669,205.400 341.553 C 204.416 342.621,202.929 344.274,202.096 345.225 C 201.264 346.177,199.980 347.487,199.244 348.138 C 198.508 348.788,197.426 349.786,196.839 350.354 C 193.555 353.534,187.927 357.526,182.701 360.380 C 181.002 361.308,179.175 362.354,178.641 362.704 C 172.483 366.740,151.646 372.321,138.058 373.574 C 119.973 375.242,121.761 374.898,122.351 376.592 C 122.679 377.534,123.096 377.861,124.392 378.194 C 132.863 380.371,138.053 381.529,145.437 382.889 C 169.601 387.339,196.106 384.175,214.369 374.659 C 217.676 372.936,225.591 368.269,226.019 367.790 C 226.126 367.671,227.437 366.750,228.932 365.744 C 230.427 364.738,232.090 363.514,232.627 363.025 C 233.164 362.536,234.649 361.270,235.928 360.211 C 241.209 355.838,250.834 345.577,253.951 340.997 C 259.768 332.449,260.763 330.801,264.520 323.495 C 266.952 318.768,270.454 310.762,270.912 308.886 C 271.062 308.271,271.574 306.893,272.050 305.825 C 272.525 304.757,273.135 302.922,273.405 301.748 C 273.675 300.573,274.199 298.738,274.570 297.670 C 274.941 296.602,275.540 294.243,275.902 292.427 C 276.264 290.612,276.719 288.427,276.913 287.573 C 279.719 275.224,279.711 257.263,276.895 242.524 C 276.691 241.456,276.246 238.952,275.907 236.959 C 275.567 234.966,274.968 232.432,274.575 231.328 C 274.182 230.224,273.570 228.023,273.215 226.438 C 272.860 224.853,272.256 222.931,271.874 222.166 C 271.491 221.402,271.059 220.282,270.914 219.678 C 270.768 219.073,270.156 217.500,269.554 216.182 C 268.027 212.840,267.002 209.991,267.119 209.417 C 267.186 209.092,266.694 208.932,265.625 208.932 C 264.460 208.932,264.107 209.062,264.313 209.417 " stroke="none" fill="#747474" fill-rule="evenodd"></path></g></svg>