<?xml version="1.0" encoding="UTF-8" standalone="no"?>
<!-- Generator: Adobe Illustrator 16.0.4, SVG Export Plug-In . SVG Version: 6.00 Build 0)  -->

<svg
   xmlns:dc="http://purl.org/dc/elements/1.1/"
   xmlns:cc="http://creativecommons.org/ns#"
   xmlns:rdf="http://www.w3.org/1999/02/22-rdf-syntax-ns#"
   xmlns:svg="http://www.w3.org/2000/svg"
   xmlns="http://www.w3.org/2000/svg"
   xmlns:sodipodi="http://sodipodi.sourceforge.net/DTD/sodipodi-0.dtd"
   xmlns:inkscape="http://www.inkscape.org/namespaces/inkscape"
   viewBox="100 0 440 117.89"
   version="1.1"
   id="svg70"
   sodipodi:docname="garten2.svg"
   inkscape:version="0.92.3 (2405546, 2018-03-11)">
  <metadata
     id="metadata76">
    <rdf:RDF>
      <cc:Work
         rdf:about="">
        <dc:format>image/svg+xml</dc:format>
        <dc:type
           rdf:resource="http://purl.org/dc/dcmitype/StillImage" />
        <dc:title></dc:title>
      </cc:Work>
    </rdf:RDF>
  </metadata>
  <defs
     id="defs74" />
  <sodipodi:namedview
     pagecolor="#ffffff"
     bordercolor="#666666"
     borderopacity="1"
     objecttolerance="10"
     gridtolerance="10"
     guidetolerance="10"
     inkscape:pageopacity="0"
     inkscape:pageshadow="2"
     inkscape:window-width="1366"
     inkscape:window-height="705"
     id="namedview72"
     showgrid="false"
     inkscape:zoom="1.6050654"
     inkscape:cx="290.95394"
     inkscape:cy="58.945"
     inkscape:window-x="81"
     inkscape:window-y="1072"
     inkscape:window-maximized="1"
     inkscape:current-layer="svg70" />
  <g
     stroke="#FFF"
     fill="#FFF"
     id="g68"
     style="fill:#ffffff">
    <path
       d="M190.21,59.71c-41.06-3.59-45.64,27.51-22.72,24.72,1-.12,5.69-1,3.43-3C169.31,80,172.4,79,173.7,78.55l10.77-4.18c1.76-.74,3.73-.86,4.86,0l3.46,2.59c4.57,3.41-.56,5.84-4.79,8.65l-7.7,5.11c-5.51,3.45-15,5-21.61,3.88-40.24-6.66-28-44.13,30.34-40.18C193,54.67,197.13,60.32,190.21,59.71Z"
       id="path46"
       style="fill:#ffffff" />
    <path
       d="M221.35,60.36l10.88-5.15c4.56-2.16,5,.42,6.42,4.78,3.7,8.65,7.8,18.59,11.48,27.26,1.18,2.83-2.48,4.57-4.76,5.49-3.31,1.45-7.57,3.93-9.54-.5-2.6-6-5.53-12.8-8.08-18.79-1.77-3.42-4.44-1.48-7.55.49L194.63,92c-2.56,1.73-4.36,2.82-6.27,2.3-4.53-2-.47-5.26,2.06-7l26.22-18.4c2.22-1.55,4.56-2.7,4.12-5.27C220.5,62,219.38,61.3,221.35,60.36Z"
       id="path48"
       style="fill:#ffffff" />
    <path
       d="M272.32,56.32l.29-.45.36-.43.37-.31.4-.22.45-.16.54-.12.64-.08,32.69-.07c17.38.27,16.11,13.77,3.38,19.11a32.63,32.63,0,0,1-6,1.72c-1.62.3-1.83.32-1.19,1.34l8.31,8.53c2.11,2.06,3.31,3.22-.29,4.71L299.92,94c-3.4,1.25-3.49.22-5.08-2L284.93,78.1c-1.7-1.36-4.41-1.64-6,.05l-6,10.64c-2.28,4-2.61,6-7,6l-11.32,0c-2.54,0-3.12-1.38-1.48-4.34,6.3-11.34,12.76-22.61,19.16-33.89l.1-.18Zm16.22,4.79c-2.23,3.73-3.92,6.89-6,10.57-1.83,3.25,2.29,3.1,4.25,3,4.51.17,23.71-6.64,17.4-12.81C301.16,58.86,290.4,58,288.55,61.11Z"
       id="path50"
       style="fill:#ffffff" />
    <path
       d="M407.74,62.48,403,70.8c-.56.87-1.22,1.66.6,1.06,2.74-.9,6-1.5,7.2-1.79,3.76-.89,7,.58,10,2.89,3.91,3-3.51,4.4-5.7,5-5.31,1.33-9.31,2.11-14.12-.74-1.37-.81-1-.95-1.86.56l-4.7,8.36c-1.14,2-.91,3,1.69,3,7.48-.05,15,0,22.44,0l.45,0,.47,0,.45.1.36.18c1.78,1.56.24,4.65-1.74,5.23l-.67.06h-1c-14.3,0-28.6.05-42.91.05l-.45,0-.34,0-.58-.16-.38-.22L372,94l-.14-.41v-.22l0-.26.06-.29.1-.31.14-.33.19-.36c6.83-11.8,13.36-23.77,20-35.66,1-1.69,2.83-1.75,4.54-1.79h36.52c2.58.23,3.16,3.1,1.56,5a3.64,3.64,0,0,1-2.45.86H413.42C409.67,60.25,409.51,59.84,407.74,62.48Z"
       id="path52"
       style="fill:#ffffff" />
    <path
       d="M380.54,60.26H364.6c-6.08,10.68-12.1,21.29-18.21,32-.88,1.55-1.67,2.32-3.49,2.46H327.83c-1.84,0-1.16-1.69-.51-2.83l18.08-31.58h-16c-3.87-.24-3.4-5-.28-5.89h52.06C385.06,54.71,384.22,60,380.54,60.26Z"
       id="path54"
       style="fill:#ffffff" />
    <path
       d="M223.41,89c-5.31,1.33-9.31,2.11-14.12-.74-6.88-4.06,6.88-6.41,9.8-7.1,3.76-.89,7,.58,10,2.89C233,87,225.6,88.48,223.41,89Z"
       id="path56"
       style="fill:#ffffff" />
    <path
       d="M445.68,58.45,457,54.78c3.28-1.29,4.66.66,6.88,3L480.19,75c3.05,3.23,4.23,3.63,6.69-.44l10.31-18c2.05-3.58,11.07-2.78,8.33,2.14L501,66.79l-9.2,16.34c-.88,1.51-1.16,2.46-.27,4.11.6,1.11,1.15,2.06-.51,2.74l-7.39,2.54c-6.61,2.27-8.51,2.25-13-2.7L453.35,70.64c-3.36-4.76-5.35,1.75-7,4.64l-9.14,16.65c-2.47,4.44-11.78,3.56-8.55-2.06l15.06-26.29C445,61.59,443,59.7,445.68,58.45Z"
       id="path58"
       style="fill:#ffffff" />
  </g>
</svg>
